<svg id="Layer_1" data-name="Layer 1" xmlns="http://www.w3.org/2000/svg" viewBox="0 0 364.13 91.49"><defs><style>.cls-1{fill:#fffbe6;}.cls-2{fill:#f8e71c;}</style></defs><path class="cls-1" d="M157.08,83.9a4.32,4.32,0,0,1,1.68.44A3.87,3.87,0,0,1,160,85.5a4.09,4.09,0,0,1,.44,1.64,4.2,4.2,0,0,1-.44,1.68,3.29,3.29,0,0,1-1.2,1.2,4,4,0,0,1-1.68.44,3.89,3.89,0,0,1-1.64-.44,3.26,3.26,0,0,1-1.16-1.2,3.35,3.35,0,0,1-.44-1.68,3.28,3.28,0,0,1,.44-1.64,2.7,2.7,0,0,1,1.16-1.16A3.89,3.89,0,0,1,157.08,83.9Zm8.76,0a4.32,4.32,0,0,1,1.68.44,3.87,3.87,0,0,1,1.2,1.16,4.09,4.09,0,0,1,.44,1.64,4.2,4.2,0,0,1-.44,1.68,2.89,2.89,0,0,1-1.2,1.2,4,4,0,0,1-1.68.44A3.89,3.89,0,0,1,164.2,90a3.26,3.26,0,0,1-1.16-1.2,3.35,3.35,0,0,1-.44-1.68A3.28,3.28,0,0,1,163,85.5a2.7,2.7,0,0,1,1.16-1.16A3.89,3.89,0,0,1,165.84,83.9Zm-23.4,9.44a3.92,3.92,0,0,1,4.64,0,3.32,3.32,0,0,1,.76,2.4v7.76a8,8,0,0,0,.64,3.56,4.12,4.12,0,0,0,1.76,2,5.65,5.65,0,0,0,2.44.52h21.4V95.9c0-2,1-2.92,3-2.92a2.93,2.93,0,0,1,2.16.72,3.09,3.09,0,0,1,.72,2.2v16a3.9,3.9,0,0,1-.84,2.72,3.26,3.26,0,0,1-2.52.92H152.92a14.09,14.09,0,0,1-4.16-.6,10.11,10.11,0,0,1-3.64-2,8.89,8.89,0,0,1-2.52-3.64,14.84,14.84,0,0,1-.92-5.52v-8A3.28,3.28,0,0,1,142.44,93.34ZM186,82.74a2.62,2.62,0,0,1,3,3v23.92h3.76v5.88h-6.24a3.26,3.26,0,0,1-2.52-.92,3.9,3.9,0,0,1-.84-2.72V85.7a3.17,3.17,0,0,1,.72-2.2A2.83,2.83,0,0,1,186,82.74Zm19.77,10a2.88,2.88,0,0,1,2.2.76,3.23,3.23,0,0,1,.72,2.24v16.08a4,4,0,0,1-.84,2.76,3.31,3.31,0,0,1-2.56.92h-14.2v-5.88h11.72V95.74C202.85,93.74,203.84,92.74,205.81,92.74ZM197,119.58a4.22,4.22,0,0,1,1.68.44,3.67,3.67,0,0,1,1.2,1.16,3.93,3.93,0,0,1,.44,1.64,4,4,0,0,1-.44,1.68,2.78,2.78,0,0,1-1.2,1.2,3.35,3.35,0,0,1-3.32,0,3.34,3.34,0,0,1-1.16-1.2,3.45,3.45,0,0,1-.44-1.68,3.39,3.39,0,0,1,.44-1.64,2.76,2.76,0,0,1,1.16-1.16A4,4,0,0,1,197,119.58Zm8.76,0a4.22,4.22,0,0,1,1.68.44,3.67,3.67,0,0,1,1.2,1.16,3.93,3.93,0,0,1,.44,1.64,4,4,0,0,1-.44,1.68,3.14,3.14,0,0,1-1.2,1.2,3.35,3.35,0,0,1-3.32,0,3.34,3.34,0,0,1-1.16-1.2,3.45,3.45,0,0,1-.44-1.68,3.39,3.39,0,0,1,.44-1.64,2.76,2.76,0,0,1,1.16-1.16A4,4,0,0,1,205.73,119.58Zm9.37-36.84a2.61,2.61,0,0,1,3,3v23.92h3.76v5.88h-6.24a3.26,3.26,0,0,1-2.52-.92,3.9,3.9,0,0,1-.84-2.72V85.7a3.17,3.17,0,0,1,.72-2.2A2.83,2.83,0,0,1,215.1,82.74ZM246,82.58a3.44,3.44,0,0,1,1.48.76,2.85,2.85,0,0,1,.92,1.28,2.44,2.44,0,0,1,0,1.8A3.52,3.52,0,0,1,247.31,88c-1.62,1.31-3.1,2.45-4.44,3.44l-4.6,3.48c-.34.27-1.09.79-2.24,1.56-.8.53-1.52,1-2.16,1.52h9.88a3.26,3.26,0,0,1,.64,0,17.11,17.11,0,0,1,4.8.92,9,9,0,0,1,3.68,2.52,10.64,10.64,0,0,1,2,3.64,18.61,18.61,0,0,1,.6,4.52h3.72l0,5.88h-1.44A2.65,2.65,0,0,1,255,114a1.4,1.4,0,0,1-.48.6,3.68,3.68,0,0,1-2.72.88h-31.6v-5.88h29.36v-.08a7.1,7.1,0,0,0-.52-2.92,4.1,4.1,0,0,0-2.08-1.76,7.86,7.86,0,0,0-3.56-.64q-4.63,0-14.92-.16a5.33,5.33,0,0,1-2.52-.56,3.18,3.18,0,0,1-1.36-1.6,3.1,3.1,0,0,1,.08-2.28,6.5,6.5,0,0,1,1.8-2.2l17-14.2.44-.36.52-.24A3,3,0,0,1,246,82.58Zm20.79,10.24h8a15.69,15.69,0,0,1,5.6.92,9.14,9.14,0,0,1,3.68,2.52,10.81,10.81,0,0,1,2,3.68,14.83,14.83,0,0,1,.64,4.24l0,7.92a3.31,3.31,0,0,1-.92,2.56,4.07,4.07,0,0,1-2.76.84H257.58v-5.88h23.2V103.9a5.94,5.94,0,0,0-.48-2.44,4.19,4.19,0,0,0-2.08-1.76,8.2,8.2,0,0,0-3.6-.64h-7.8a3.32,3.32,0,0,1-2.44-.8,3.2,3.2,0,0,1-.76-2.36,3.15,3.15,0,0,1,.76-2.32A3.32,3.32,0,0,1,266.82,92.82Zm33.08-.08a9.78,9.78,0,0,1,4.28,1,9.23,9.23,0,0,1,3.08,2.56,15.21,15.21,0,0,1,2.88,8.16,60.29,60.29,0,0,1,.16,10.12,16.35,16.35,0,0,1-1,4.48,9.61,9.61,0,0,1-2.6,3.76q-3.17,2.76-9.24,2.92c-2,.08-3.42-.17-4.16-.76a2.42,2.42,0,0,1-.88-1.2,3.07,3.07,0,0,1-.16-1.6,3,3,0,0,1,1-2.12,3.69,3.69,0,0,1,2.36-.64h.76a22,22,0,0,0,4-.24,4.28,4.28,0,0,0,2.84-2.44,6.52,6.52,0,0,0,.56-1.92,9.57,9.57,0,0,1-3.8.72,9.18,9.18,0,0,1-4.32-1,9.39,9.39,0,0,1-3.08-2.6,10.79,10.79,0,0,1-1.88-3.68,14.25,14.25,0,0,1-.64-4.32,14.49,14.49,0,0,1,.64-4.24,9.94,9.94,0,0,1,1.88-3.56,8.38,8.38,0,0,1,3.08-2.48A9.92,9.92,0,0,1,299.9,92.74Zm0,5.4a3.7,3.7,0,0,0-1.76.52,3.49,3.49,0,0,0-1.2,1.24,6.28,6.28,0,0,0-.72,1.8,8.75,8.75,0,0,0-.24,2,10.51,10.51,0,0,0,.24,2.12,8.66,8.66,0,0,0,.72,2.08,4.64,4.64,0,0,0,1.2,1.6,2.44,2.44,0,0,0,1.76.64,2.75,2.75,0,0,0,1.72-.52,3.7,3.7,0,0,0,1.2-1.36,6.93,6.93,0,0,0,.72-1.88,12.09,12.09,0,0,0,.2-2,13.5,13.5,0,0,0-.2-2.12,8.63,8.63,0,0,0-.72-2,4.09,4.09,0,0,0-1.2-1.52A3,3,0,0,0,299.9,98.14ZM338.07,83.9a4.22,4.22,0,0,1,1.68.44A3.67,3.67,0,0,1,341,85.5a3.93,3.93,0,0,1,.44,1.64,4,4,0,0,1-.44,1.68,3.14,3.14,0,0,1-1.2,1.2,3.35,3.35,0,0,1-3.32,0,3.34,3.34,0,0,1-1.16-1.2,3.45,3.45,0,0,1-.44-1.68,3.39,3.39,0,0,1,.44-1.64,2.76,2.76,0,0,1,1.16-1.16A4,4,0,0,1,338.07,83.9Zm8.76,0a4.22,4.22,0,0,1,1.68.44,3.67,3.67,0,0,1,1.2,1.16,3.93,3.93,0,0,1,.44,1.64,4,4,0,0,1-.44,1.68,2.78,2.78,0,0,1-1.2,1.2,3.35,3.35,0,0,1-3.32,0,3.34,3.34,0,0,1-1.16-1.2,3.45,3.45,0,0,1-.44-1.68A3.39,3.39,0,0,1,344,85.5a2.76,2.76,0,0,1,1.16-1.16A4,4,0,0,1,346.83,83.9Zm-23.4,9.44a3.92,3.92,0,0,1,4.64,0,3.28,3.28,0,0,1,.76,2.4v7.76a8.18,8.18,0,0,0,.64,3.56,4.17,4.17,0,0,0,1.76,2,5.68,5.68,0,0,0,2.44.52h21.4V95.9c0-2,1-2.92,3-2.92a2.93,2.93,0,0,1,2.16.72,3.09,3.09,0,0,1,.72,2.2v16a3.9,3.9,0,0,1-.84,2.72,3.26,3.26,0,0,1-2.52.92H333.91a14.19,14.19,0,0,1-4.16-.6,10.28,10.28,0,0,1-3.64-2,9.08,9.08,0,0,1-2.52-3.64,15,15,0,0,1-.92-5.52v-8A3.32,3.32,0,0,1,323.43,93.34ZM367,82.74a2.62,2.62,0,0,1,3,3v23.92h3.76v5.88h-6.24a3.26,3.26,0,0,1-2.52-.92,3.9,3.9,0,0,1-.84-2.72V85.7a3.17,3.17,0,0,1,.72-2.2A2.83,2.83,0,0,1,367,82.74Zm19.77,10a2.89,2.89,0,0,1,2.2.76,3.23,3.23,0,0,1,.72,2.24v16.08a4,4,0,0,1-.84,2.76,3.32,3.32,0,0,1-2.56.92h-14.2v-5.88h11.72V95.74C383.85,93.74,384.83,92.74,386.81,92.74ZM378,119.58a4.32,4.32,0,0,1,1.68.44,3.87,3.87,0,0,1,1.2,1.16,4.09,4.09,0,0,1,.44,1.64,4.2,4.2,0,0,1-.44,1.68,2.89,2.89,0,0,1-1.2,1.2,4,4,0,0,1-1.68.44,3.89,3.89,0,0,1-1.64-.44,3.26,3.26,0,0,1-1.16-1.2,3.35,3.35,0,0,1-.44-1.68,3.28,3.28,0,0,1,.44-1.64,2.7,2.7,0,0,1,1.16-1.16A3.89,3.89,0,0,1,378,119.58Zm8.76,0a4.32,4.32,0,0,1,1.68.44,3.87,3.87,0,0,1,1.2,1.16,4.09,4.09,0,0,1,.44,1.64,4.2,4.2,0,0,1-.44,1.68,3.29,3.29,0,0,1-1.2,1.2,4,4,0,0,1-1.68.44,3.89,3.89,0,0,1-1.64-.44,3.26,3.26,0,0,1-1.16-1.2,3.35,3.35,0,0,1-.44-1.68,3.28,3.28,0,0,1,.44-1.64,2.7,2.7,0,0,1,1.16-1.16A3.89,3.89,0,0,1,386.73,119.58Zm6.49-33.36a3,3,0,1,1,5.92,0v26.32a3,3,0,0,1-.76,2.24,3.72,3.72,0,0,1-4.4,0,3,3,0,0,1-.76-2.24Zm19,6.52a9.75,9.75,0,0,1,4.28,1,9.13,9.13,0,0,1,3.08,2.56,15.21,15.21,0,0,1,2.88,8.16,59.24,59.24,0,0,1,.16,10.12,16,16,0,0,1-1,4.48,9.61,9.61,0,0,1-2.6,3.76q-3.17,2.76-9.24,2.92c-2,.08-3.41-.17-4.16-.76a2.42,2.42,0,0,1-.88-1.2,3.07,3.07,0,0,1-.16-1.6,3,3,0,0,1,1-2.12,3.69,3.69,0,0,1,2.36-.64h.76a22,22,0,0,0,4-.24,4.28,4.28,0,0,0,2.84-2.44,6.23,6.23,0,0,0,.56-1.92,9.57,9.57,0,0,1-3.8.72,9.23,9.23,0,0,1-4.32-1,9.49,9.49,0,0,1-3.08-2.6,11,11,0,0,1-1.88-3.68,14.25,14.25,0,0,1-.64-4.32,14.49,14.49,0,0,1,.64-4.24,9.94,9.94,0,0,1,1.88-3.56,8.46,8.46,0,0,1,3.08-2.48A9.92,9.92,0,0,1,412.22,92.74Zm0,5.4a3.5,3.5,0,0,0-3,1.76,6.28,6.28,0,0,0-.72,1.8,8.75,8.75,0,0,0-.24,2,10.51,10.51,0,0,0,.24,2.12,8.66,8.66,0,0,0,.72,2.08,4.64,4.64,0,0,0,1.2,1.6,2.44,2.44,0,0,0,1.76.64,2.73,2.73,0,0,0,1.72-.52,3.7,3.7,0,0,0,1.2-1.36,6.93,6.93,0,0,0,.72-1.88,12.09,12.09,0,0,0,.2-2,13.5,13.5,0,0,0-.2-2.12,8.63,8.63,0,0,0-.72-2,4.09,4.09,0,0,0-1.2-1.52A3,3,0,0,0,412.22,98.14ZM437,93.22a4,4,0,0,1,4.72,0,3.33,3.33,0,0,1,.76,2.44v14c0,2.85,0,4.57,0,5.16a12.48,12.48,0,0,1-.92,4.08l-.08.12a9.51,9.51,0,0,1-2.6,3.76q-3.15,2.76-9.24,2.92c-2,.08-3.41-.17-4.16-.76a2.48,2.48,0,0,1-.88-1.2,3.18,3.18,0,0,1-.16-1.6,3,3,0,0,1,1-2.12,3.71,3.71,0,0,1,2.36-.64h.76a21.79,21.79,0,0,0,4-.24,4.92,4.92,0,0,0,3.08-2.48,7.57,7.57,0,0,0,.64-3.6V95.66A3.33,3.33,0,0,1,437,93.22Z" transform="translate(-78.94 -82.49)"/><path class="cls-2" d="M90.91,146.81l.51,0A1.63,1.63,0,0,1,93,148.7v8.88h2.19v3.92H91.1a2,2,0,0,1-1.42-.43l-.16-.21q-4.29.75-6.56-.08a6,6,0,0,1-2.34-1.55A5.69,5.69,0,0,1,79.34,157a9.62,9.62,0,0,1-.4-2.8,9.49,9.49,0,0,1,.4-2.83A5.91,5.91,0,0,1,80.62,149a6.58,6.58,0,0,1,2.34-1.6Q84.4,146.81,90.91,146.81ZM89.2,157.05V150.7a11.12,11.12,0,0,0-4.82.48,2.28,2.28,0,0,0-1.15,1.12,3.79,3.79,0,0,0-.32,1.63,4.3,4.3,0,0,0,.32,1.7,2.74,2.74,0,0,0,1.17,1.28Q85.87,157.76,89.2,157.05Zm10.63-17.5a1.89,1.89,0,0,1,1.44.51,2,2,0,0,1,.5,1.49v17.5a2.52,2.52,0,0,1-.58,1.84,2.18,2.18,0,0,1-1.68.61H94.09v-3.92h3.76v-16A1.76,1.76,0,0,1,99.83,139.55Zm6,.11a1.74,1.74,0,0,1,2,2v16h2.51v3.92h-4.16a2.15,2.15,0,0,1-1.68-.61,2.59,2.59,0,0,1-.56-1.82V141.63a2.09,2.09,0,0,1,.48-1.46A1.89,1.89,0,0,1,105.82,139.66Zm13.66,6.85a6.41,6.41,0,0,1,2.82.62,6.3,6.3,0,0,1,2.06,1.68,8,8,0,0,1,1.25,2.42A8.7,8.7,0,0,1,126,154a9,9,0,0,1-.43,2.86q-.14.38-.27.69h2.43v3.92h-1.52a1.76,1.76,0,0,1-2-2v-.14a5.57,5.57,0,0,1-2,1.55,6.86,6.86,0,0,1-2.82.56H109.21v-3.92h4.45a5,5,0,0,1-.32-.83,9.26,9.26,0,0,1-.42-2.85,9.08,9.08,0,0,1,.42-2.83,7.39,7.39,0,0,1,1.26-2.34,5.71,5.71,0,0,1,2-1.63A6.49,6.49,0,0,1,119.48,146.51Zm0,3.55a2.44,2.44,0,0,0-1.15.35c-1.15.73-1.62,2-1.39,3.86a4.23,4.23,0,0,0,1.39,2.94,1.76,1.76,0,0,0,1.15.42,2,2,0,0,0,1.14-.34,3.9,3.9,0,0,0,1.44-3.47,4.07,4.07,0,0,0-1.44-3.36A1.94,1.94,0,0,0,119.48,150.06Zm16.43-3.36h2.37a2.14,2.14,0,0,1,1.58.51,2,2,0,0,1,.5,1.52,2.07,2.07,0,0,1-.5,1.52,2.23,2.23,0,0,1-1.58.48h-2.21a4.72,4.72,0,0,0-2.35.5,2.86,2.86,0,0,0-1.17,1.31,4.29,4.29,0,0,0-.35,1.76,4.18,4.18,0,0,0,.35,1.71,2.36,2.36,0,0,0,1.17,1.14,5.19,5.19,0,0,0,2.35.43h4.69a2.17,2.17,0,0,1,1.58.53,1.85,1.85,0,0,1,.5,1.42,2,2,0,0,1-.5,1.46,2.14,2.14,0,0,1-1.58.51h-14v-3.92h2.08l-.24-.64a8.49,8.49,0,0,1-.4-2.88,9.69,9.69,0,0,1,.4-2.88,6.39,6.39,0,0,1,1.33-2.32,6.12,6.12,0,0,1,2.38-1.57A10.15,10.15,0,0,1,135.91,146.7ZM145,142a2,2,0,0,1,3.95,0v17.55a2,2,0,0,1-.51,1.49,2.48,2.48,0,0,1-2.93,0,2,2,0,0,1-.51-1.49Zm19.43,4.67a2.69,2.69,0,0,1,3.15,0,2.2,2.2,0,0,1,.5,1.62v9.31h2.46v3.92h-1a2,2,0,0,1-1.46-.48,8.42,8.42,0,0,1-.62,2.72l-.05.08a6.46,6.46,0,0,1-1.73,2.51,9.55,9.55,0,0,1-6.16,1.94,4.42,4.42,0,0,1-2.78-.5,1.63,1.63,0,0,1-.58-.8,2.07,2.07,0,0,1-.11-1.07,2,2,0,0,1,.67-1.41,2.43,2.43,0,0,1,1.57-.43h.51a14.32,14.32,0,0,0,2.64-.16,3.29,3.29,0,0,0,2.05-1.65,5,5,0,0,0,.43-2.4V148.27A2.21,2.21,0,0,1,164.42,146.65Zm18-13.15a3,3,0,0,1,1.12.29,2.11,2.11,0,0,1,1.09,1.87,2.62,2.62,0,0,1-.29,1.12,2,2,0,0,1-.8.8,2.66,2.66,0,0,1-1.12.29,2.52,2.52,0,0,1-1.09-.29,2.3,2.3,0,0,1-.78-.8,2.37,2.37,0,0,1-.29-1.12,2.28,2.28,0,0,1,.29-1.09,1.83,1.83,0,0,1,.78-.78A2.67,2.67,0,0,1,182.46,133.5Zm-3,5.12a3,3,0,0,1,1.12.29,2.11,2.11,0,0,1,1.09,1.87,2.62,2.62,0,0,1-.29,1.12,2,2,0,0,1-.8.8,2.66,2.66,0,0,1-1.12.29,2.52,2.52,0,0,1-1.09-.29,2.3,2.3,0,0,1-.78-.8,2.37,2.37,0,0,1-.29-1.12,2.28,2.28,0,0,1,.29-1.09,1.83,1.83,0,0,1,.78-.78A2.67,2.67,0,0,1,179.42,138.62Zm5.84,0a3,3,0,0,1,1.12.29,2.11,2.11,0,0,1,1.09,1.87,2.62,2.62,0,0,1-.29,1.12,2.19,2.19,0,0,1-.8.8,2.66,2.66,0,0,1-1.12.29,2.52,2.52,0,0,1-1.09-.29,2.3,2.3,0,0,1-.78-.8,2.37,2.37,0,0,1-.29-1.12,2.28,2.28,0,0,1,.29-1.09,1.83,1.83,0,0,1,.78-.78A2.67,2.67,0,0,1,185.26,138.62Zm6.21,7.33a2.16,2.16,0,0,1,1.58.51,2.22,2.22,0,0,1,.5,1.6v5.57a8.59,8.59,0,0,1-.64,3.74.41.41,0,0,1-.1.21h2.34v3.92h-1.52a1.74,1.74,0,0,1-2-2v-.22a6.53,6.53,0,0,1-4.45,2.14,5.84,5.84,0,0,1-4.8-1.63l-.14-.13-.16.13a6.53,6.53,0,0,1-6.48,1.36,6.34,6.34,0,0,1-2.4-1.33c-.25-.25-.49-.52-.72-.8a3,3,0,0,1,0,.48,1.74,1.74,0,0,1-2,2h-1.12v-3.92h2.26l-.08-.16a10.44,10.44,0,0,1-.58-3.73v-5.58a2.16,2.16,0,0,1,.53-1.6,2.14,2.14,0,0,1,1.55-.5,2,2,0,0,1,1.52.5,2.22,2.22,0,0,1,.5,1.6v5.44a4.65,4.65,0,0,0,.51,2.38,2.48,2.48,0,0,0,2.13,1.41,2.25,2.25,0,0,0,2.06-1.44,3.89,3.89,0,0,0,.37-1.6v-6.21a2.16,2.16,0,0,1,.51-1.6,2.07,2.07,0,0,1,1.54-.51h.06a2.13,2.13,0,0,1,1.57.51,2.16,2.16,0,0,1,.51,1.6v5.57a3.63,3.63,0,0,0,1.7,3.33q1.77,1.13,2.88-1.12a5.39,5.39,0,0,0,.43-2.4v-5.41a2.18,2.18,0,0,1,.51-1.6A2.07,2.07,0,0,1,191.47,146Zm7.42-7.33a2.91,2.91,0,0,1,1.12.29,2.47,2.47,0,0,1,.8.78,2.71,2.71,0,0,1,.3,1.09,2.77,2.77,0,0,1-.3,1.12,1.87,1.87,0,0,1-.8.8,2.25,2.25,0,0,1-2.21,0,2.19,2.19,0,0,1-.77-.8,2.27,2.27,0,0,1-.3-1.12,2.19,2.19,0,0,1,.3-1.09,1.76,1.76,0,0,1,.77-.78A2.76,2.76,0,0,1,198.89,138.62Zm.19,7.6a2,2,0,0,1,1.47.48,2,2,0,0,1,.48,1.49V159a2.64,2.64,0,0,1-.59,1.84,2.19,2.19,0,0,1-1.71.64h-4.64v-3.92h3v-9.39A1.76,1.76,0,0,1,199.08,146.22Zm12.38,9.63a2.12,2.12,0,0,1,1.52.48,2.16,2.16,0,0,1,.51,1.6v1.81a5.16,5.16,0,0,0,.43,2.35,2.63,2.63,0,0,0,1.14,1.33,3.68,3.68,0,0,0,1.58.32H218v0h10.11c0-.73-.51-1.3-1.52-1.71a6.41,6.41,0,0,0-2.45-.48h-.94a2.29,2.29,0,0,1-1.57-.48,2.52,2.52,0,0,1,0-3,2.29,2.29,0,0,1,1.57-.48h10.43v3.92h-2.27l.22.69a10.94,10.94,0,0,1,.37,3.18,2.08,2.08,0,0,1-.59,1.65,2.57,2.57,0,0,1-1.76.53l-11.94,0-.88,0a9,9,0,0,1-2.72-.4,6.09,6.09,0,0,1-2.4-1.31,6,6,0,0,1-1.63-2.37,9.71,9.71,0,0,1-.59-3.63v-2a2.2,2.2,0,0,1,.48-1.6A2.08,2.08,0,0,1,211.46,155.85Zm8.64,13.76a2.75,2.75,0,0,1,1.12.29,2.54,2.54,0,0,1,.8.77,2.76,2.76,0,0,1,.3,1.1,2.81,2.81,0,0,1-.3,1.12,1.93,1.93,0,0,1-.8.8,2.25,2.25,0,0,1-2.21,0,2.27,2.27,0,0,1-1.07-1.92,2.22,2.22,0,0,1,.3-1.1,1.79,1.79,0,0,1,.77-.77A2.56,2.56,0,0,1,220.1,169.61Zm5.84,0a2.75,2.75,0,0,1,1.12.29,2.54,2.54,0,0,1,.8.77,2.76,2.76,0,0,1,.3,1.1,2.81,2.81,0,0,1-.3,1.12,2.19,2.19,0,0,1-.8.8,2.25,2.25,0,0,1-2.21,0,2.27,2.27,0,0,1-1.07-1.92,2.22,2.22,0,0,1,.3-1.1,1.79,1.79,0,0,1,.77-.77A2.56,2.56,0,0,1,225.94,169.61Zm16.58-30.72a2.66,2.66,0,0,1,1.12.29,2.11,2.11,0,0,1,.8.77,2.27,2.27,0,0,1,0,2.22,2.36,2.36,0,0,1-.8.8,2.27,2.27,0,0,1-2.22,0,2,2,0,0,1-.77-.8,2.13,2.13,0,0,1-.29-1.1,2.26,2.26,0,0,1,.29-1.12,1.84,1.84,0,0,1,.77-.77A2.61,2.61,0,0,1,242.52,138.89Zm-.43,7.62h4.16a2.2,2.2,0,0,1,1.55.48,2.15,2.15,0,0,1,.5,1.55v11.73a1.14,1.14,0,0,1-.45.91,1.73,1.73,0,0,1-1,.32H232.57v-3.92h3.71a9.45,9.45,0,0,1-.8-4.19,8.17,8.17,0,0,1,1-3.89,5.82,5.82,0,0,1,2.24-2.19A7,7,0,0,1,242.09,146.51Zm2.32,3.9h-2a3,3,0,0,0-2,.61c-.89.78-1.17,2-.83,3.81s1.17,2.75,2.51,2.75h2.37ZM266,138.62a3,3,0,0,1,1.12.29,2.57,2.57,0,0,1,.8.78,2.71,2.71,0,0,1,.29,1.09,2.77,2.77,0,0,1-.29,1.12,2.27,2.27,0,0,1-.8.8A2.66,2.66,0,0,1,266,143a2.61,2.61,0,0,1-1.1-.29,2.23,2.23,0,0,1-1.06-1.92,2.17,2.17,0,0,1,.29-1.09,1.81,1.81,0,0,1,.77-.78A2.76,2.76,0,0,1,266,138.62Zm5.84,0a3,3,0,0,1,1.12.29,2.57,2.57,0,0,1,.8.78,2.71,2.71,0,0,1,.29,1.09,2.77,2.77,0,0,1-.29,1.12,2,2,0,0,1-.8.8,2.66,2.66,0,0,1-1.12.29,2.61,2.61,0,0,1-1.1-.29,2.23,2.23,0,0,1-1.06-1.92,2.17,2.17,0,0,1,.29-1.09,1.81,1.81,0,0,1,.77-.78A2.76,2.76,0,0,1,271.8,138.62Zm-2.86,7.89a6.18,6.18,0,0,1,2.86.64,5.8,5.8,0,0,1,2.05,1.68,7.8,7.8,0,0,1,1.25,2.4,9.06,9.06,0,0,1,.46,2.83v3.52H278v3.92h-1a1.87,1.87,0,0,1-1.6-.64,7.45,7.45,0,0,1-1.81,4,9.38,9.38,0,0,1-4.75,2.77,11.74,11.74,0,0,1-5.65.11,9.08,9.08,0,0,1-4.77-2.51,7,7,0,0,1-2-5.09v-4.48a9.53,9.53,0,0,1,.18-2.35,1.79,1.79,0,0,1,1.87-1.15,1.93,1.93,0,0,1,2.08,2,21.77,21.77,0,0,1-.05,2.93,17.88,17.88,0,0,0,0,3,3.79,3.79,0,0,0,1.6,2.88,7,7,0,0,0,5.12.94,4.76,4.76,0,0,0,4.06-2.78,6.68,6.68,0,0,1-2.38.4,6,6,0,0,1-2.82-.64,5.63,5.63,0,0,1-2.06-1.7,7.56,7.56,0,0,1-1.22-2.46,9,9,0,0,1-.43-2.85,8.65,8.65,0,0,1,.43-2.8,7.19,7.19,0,0,1,1.22-2.37,5.41,5.41,0,0,1,2.06-1.6A6.41,6.41,0,0,1,268.94,146.51Zm1.15,4a1.87,1.87,0,0,0-1.15-.4,2.09,2.09,0,0,0-1.14.32c-1.14.71-1.59,2-1.36,3.86a4.26,4.26,0,0,0,1.36,2.94,1.73,1.73,0,0,0,1.14.42,1.83,1.83,0,0,0,1.15-.34,3.74,3.74,0,0,0,1.44-3.44A4.06,4.06,0,0,0,270.09,150.49Zm13-4.11h5.36a10.38,10.38,0,0,1,3.73.61,6.08,6.08,0,0,1,2.45,1.68,7.22,7.22,0,0,1,1.34,2.46,9.83,9.83,0,0,1,.42,2.82l0,5.28a2.19,2.19,0,0,1-.62,1.71,2.72,2.72,0,0,1-1.84.56H277v-3.92h15.46v-3.81a3.86,3.86,0,0,0-.32-1.63,2.72,2.72,0,0,0-1.38-1.17,5.39,5.39,0,0,0-2.4-.43h-5.2a2.23,2.23,0,0,1-1.63-.53,2.16,2.16,0,0,1-.51-1.58,2.07,2.07,0,0,1,.51-1.54A2.23,2.23,0,0,1,283.11,146.38Zm47,.29a11.17,11.17,0,0,1,2.82.38,9.89,9.89,0,0,1,2.56,1.09,8.53,8.53,0,0,1,2.11,1.73,7.41,7.41,0,0,1,1.44,2.32,7.56,7.56,0,0,1,.51,2.86v2.53h2.24v3.92h-1a1.86,1.86,0,0,1-1.52-.59,1.39,1.39,0,0,1-.48.4,3.22,3.22,0,0,1-1.31.19H319.57a7.19,7.19,0,0,1-.5,1.84,6.58,6.58,0,0,1-1.66,2.45,7.17,7.17,0,0,1-2.45,1.34,10.86,10.86,0,0,1-5.84,0,6.38,6.38,0,0,1-2.37-1.34,5.67,5.67,0,0,1-1.6-2.45,10.35,10.35,0,0,1-.59-3.71v-6.26a2.16,2.16,0,0,1,.51-1.6,2.6,2.6,0,0,1,3.09,0,2.16,2.16,0,0,1,.51,1.6v6.1a4.82,4.82,0,0,0,.5,2.4,3,3,0,0,0,1.31,1.2,4.41,4.41,0,0,0,1.79.32,3.82,3.82,0,0,0,1.7-.32,2.64,2.64,0,0,0,1.18-1.2,5.52,5.52,0,0,0,.48-2.4v-9.2a2.12,2.12,0,0,1,.48-1.62,2.6,2.6,0,0,1,3.09,0,2.2,2.2,0,0,1,.51,1.62v7.31h.77v-3a7.34,7.34,0,0,1,.53-2.82,6.62,6.62,0,0,1,1.47-2.22,10.27,10.27,0,0,1,2.16-1.6,11.64,11.64,0,0,1,2.61-1A13.2,13.2,0,0,1,330.11,146.67Zm0,4.06A8.18,8.18,0,0,0,328,151a6.17,6.17,0,0,0-1.84.78,3.63,3.63,0,0,0-1.25,1.28,3.24,3.24,0,0,0-.51,1.78v2.75h11.23v-2.43a3.9,3.9,0,0,0-.48-1.89,4,4,0,0,0-1.26-1.39,5.44,5.44,0,0,0-1.76-.85A7.2,7.2,0,0,0,330.11,150.73ZM351,138.91a3,3,0,0,1,1.12.3,2.43,2.43,0,0,1,.8.77,2.25,2.25,0,0,1,0,2.21,1.72,1.72,0,0,1-.8.8,2.81,2.81,0,0,1-1.12.3,2.76,2.76,0,0,1-1.1-.3,2.19,2.19,0,0,1-.77-.8,2.34,2.34,0,0,1-.29-1.12,2.31,2.31,0,0,1,.29-1.09,1.79,1.79,0,0,1,.77-.77A2.76,2.76,0,0,1,351,138.91Zm-4.14,7.47h5.36A10.4,10.4,0,0,1,356,147a6.08,6.08,0,0,1,2.45,1.68,7,7,0,0,1,1.33,2.46,9.51,9.51,0,0,1,.43,2.82v3.63h2.4v3.92h-1a1.7,1.7,0,0,1-1.73-1,2.8,2.8,0,0,1-.32.4,2.73,2.73,0,0,1-1.84.56h-17v-3.92H356.2v-3.81a4,4,0,0,0-.32-1.63,2.71,2.71,0,0,0-1.39-1.17,5.34,5.34,0,0,0-2.4-.43h-5.2a2.22,2.22,0,0,1-1.62-.53,2.16,2.16,0,0,1-.51-1.58,2.07,2.07,0,0,1,.51-1.54A2.22,2.22,0,0,1,346.89,146.38Zm27.59-12.88a3,3,0,0,1,1.12.29,2.68,2.68,0,0,1,.8.78,2.71,2.71,0,0,1,.29,1.09,2.77,2.77,0,0,1-.29,1.12,2,2,0,0,1-.8.8,2.66,2.66,0,0,1-1.12.29,2.61,2.61,0,0,1-1.1-.29,2.19,2.19,0,0,1-.77-.8,2.26,2.26,0,0,1-.29-1.12,2.17,2.17,0,0,1,.29-1.09,1.76,1.76,0,0,1,.77-.78A2.76,2.76,0,0,1,374.48,133.5Zm-3,5.12a3,3,0,0,1,1.12.29,2.68,2.68,0,0,1,.8.78,2.71,2.71,0,0,1,.29,1.09,2.77,2.77,0,0,1-.29,1.12,2,2,0,0,1-.8.8,2.66,2.66,0,0,1-1.12.29,2.61,2.61,0,0,1-1.1-.29,2.19,2.19,0,0,1-.77-.8,2.26,2.26,0,0,1-.29-1.12,2.17,2.17,0,0,1,.29-1.09,1.76,1.76,0,0,1,.77-.78A2.76,2.76,0,0,1,371.44,138.62Zm5.84,0a3,3,0,0,1,1.12.29,2.68,2.68,0,0,1,.8.78,2.71,2.71,0,0,1,.29,1.09,2.77,2.77,0,0,1-.29,1.12,2.27,2.27,0,0,1-.8.8,2.66,2.66,0,0,1-1.12.29,2.61,2.61,0,0,1-1.1-.29,2.19,2.19,0,0,1-.77-.8,2.26,2.26,0,0,1-.29-1.12,2.17,2.17,0,0,1,.29-1.09,1.76,1.76,0,0,1,.77-.78A2.76,2.76,0,0,1,377.28,138.62Zm6.26,7.33a2.16,2.16,0,0,1,1.58.51,2.22,2.22,0,0,1,.5,1.6v5.57a10,10,0,0,1-.74,4,6,6,0,0,1-1.15,1.73,6.76,6.76,0,0,1-4.45,2.14,5.84,5.84,0,0,1-4.8-1.63l-.14-.13-.16.13a6.53,6.53,0,0,1-6.48,1.36,6.34,6.34,0,0,1-2.4-1.33c-.25-.25-.49-.52-.72-.8a3,3,0,0,1,0,.48,1.74,1.74,0,0,1-2,2h-1.12v-3.92h2.26l-.08-.16a10.44,10.44,0,0,1-.58-3.73v-5.58a2.16,2.16,0,0,1,.53-1.6,2.14,2.14,0,0,1,1.55-.5,2,2,0,0,1,1.52.5,2.22,2.22,0,0,1,.5,1.6v5.44a4.65,4.65,0,0,0,.51,2.38,2.48,2.48,0,0,0,2.13,1.41,2.25,2.25,0,0,0,2.06-1.44,3.89,3.89,0,0,0,.37-1.6v-6.21a2.16,2.16,0,0,1,.51-1.6,2.07,2.07,0,0,1,1.54-.51h.06a2.13,2.13,0,0,1,1.57.51,2.16,2.16,0,0,1,.51,1.6v5.57a3.63,3.63,0,0,0,1.7,3.33q1.77,1.13,2.88-1.12a5.39,5.39,0,0,0,.43-2.4v-5.41a2.18,2.18,0,0,1,.51-1.6A2.07,2.07,0,0,1,383.54,146Zm23.36-6.34a2.15,2.15,0,0,1,1.55.5,2.27,2.27,0,0,1,.5,1.63v15.84h2.56l0,3.92h-1a1.9,1.9,0,0,1-1.6-.61,9.6,9.6,0,0,1-.59,2.77,6.08,6.08,0,0,1-1.68,2.45,6.42,6.42,0,0,1-2.45,1.34,10,10,0,0,1-2.94.42,9.55,9.55,0,0,1-2.93-.42,6.38,6.38,0,0,1-2.37-1.34,5.67,5.67,0,0,1-1.6-2.45,10.23,10.23,0,0,1-.59-3.71v-4.21a2.23,2.23,0,0,1,.51-1.63,2.11,2.11,0,0,1,1.54-.5,2.14,2.14,0,0,1,1.55.5,2.23,2.23,0,0,1,.51,1.63v4a4.82,4.82,0,0,0,.5,2.4,3,3,0,0,0,1.34,1.2,4.31,4.31,0,0,0,1.78.35,3.92,3.92,0,0,0,1.71-.35,2.62,2.62,0,0,0,1.17-1.2,5.39,5.39,0,0,0,.43-2.4v-18a2.23,2.23,0,0,1,.51-1.63A2.16,2.16,0,0,1,406.9,139.61Zm20.79-.06a2.21,2.21,0,0,1,1,.51,2,2,0,0,1,.62.85,1.61,1.61,0,0,1,0,1.2,2.38,2.38,0,0,1-.77,1c-1.08.87-2.07,1.64-3,2.3l-3.07,2.32c-.23.17-.72.52-1.49,1-.53.35-1,.69-1.44,1h6.59a2.05,2.05,0,0,1,.42,0,11.51,11.51,0,0,1,3.2.61,6.11,6.11,0,0,1,2.46,1.68,7.15,7.15,0,0,1,1.33,2.43,12.33,12.33,0,0,1,.4,3h2.48l0,3.92h-1a1.77,1.77,0,0,1-1.81-1,1,1,0,0,1-.32.4,2.46,2.46,0,0,1-1.81.59H410.46v-3.92H430v-.05a4.8,4.8,0,0,0-.34-1.95,2.75,2.75,0,0,0-1.39-1.17,5.19,5.19,0,0,0-2.37-.43q-3.09,0-9.95-.11a3.48,3.48,0,0,1-1.68-.37,2.1,2.1,0,0,1-.91-1.07,2.06,2.06,0,0,1,.06-1.52,4.06,4.06,0,0,1,1.2-1.46L426,140l.29-.24.35-.16A1.93,1.93,0,0,1,427.69,139.55Zm13.43,0a1.89,1.89,0,0,1,1.44.51,2.06,2.06,0,0,1,.5,1.49v17.5a2.52,2.52,0,0,1-.58,1.84,2.18,2.18,0,0,1-1.68.61h-5.42v-3.92h3.76v-16A1.76,1.76,0,0,1,441.12,139.55Z" transform="translate(-78.94 -82.49)"/></svg>