<?xml version="1.0" encoding="utf-8"?>
<!-- Generator: Adobe Illustrator 24.1.3, SVG Export Plug-In . SVG Version: 6.00 Build 0)  -->
<svg version="1.1" id="Layer_1" xmlns="http://www.w3.org/2000/svg" xmlns:xlink="http://www.w3.org/1999/xlink" x="0px" y="0px"
	 viewBox="0 0 560 288" style="enable-background:new 0 0 560 288;" xml:space="preserve">
<style type="text/css">
	.st0{fill:#FFFBE6;}
	.st1{fill:#356859;}
</style>
<circle class="st0" cx="80.85" cy="141.1" r="39.6"/>
<path class="st1" d="M108.92,124.6l-4.04,0v-4.18c0-0.96-0.7-1.77-1.65-1.91c-0.17-0.02-4.1-0.6-8.84,0.27
	c-5.28,0.96-9.49,3.33-12.35,6.91c-2.86-3.58-7.07-5.95-12.35-6.91c-4.74-0.86-8.67-0.29-8.84-0.27c-0.95,0.14-1.65,0.95-1.65,1.91
	v4.18h-4.04c-1.07,0-1.93,0.87-1.93,1.93v36.43c0,0.63,0.3,1.21,0.81,1.58c0.51,0.36,1.16,0.46,1.76,0.25
	c0.15-0.05,14.63-4.99,25.43-0.07c0.51,0.23,1.09,0.23,1.6,0c10.77-4.91,25.29,0.02,25.43,0.07c0.21,0.07,0.42,0.11,0.64,0.11
	c0.4,0,0.79-0.12,1.12-0.36c0.51-0.36,0.81-0.95,0.81-1.58v-36.43C110.86,125.47,109.99,124.6,108.92,124.6z M57.12,160.37v-31.91
	h2.1v25.74c0,0.56,0.25,1.1,0.67,1.46c0.42,0.37,0.99,0.53,1.55,0.45c0.11-0.02,8.5-1.17,14.64,3.04
	C68.52,157.87,60.96,159.37,57.12,160.37z M80.12,157.42c-2.7-2.44-6.22-4.09-10.42-4.86c-2.02-0.37-3.89-0.47-5.39-0.47
	c-0.44,0-0.86,0.01-1.23,0.02V122.2h0c3.72-0.17,12.75,0.23,17.03,7.48V157.42z M83.99,129.68c4.26-7.22,13.32-7.64,17.03-7.48
	v29.91c-1.63-0.07-4-0.03-6.62,0.45c-4.19,0.76-7.71,2.41-10.42,4.86V129.68z M88.02,159.16c6.14-4.21,14.54-3.06,14.64-3.04
	c0.56,0.08,1.12-0.08,1.55-0.45c0.43-0.37,0.67-0.9,0.67-1.46v-25.74h2.1v31.91C103.15,159.36,95.58,157.87,88.02,159.16z"/>
<path class="st0" d="M196.3,101.42c1.3,0,2.44,0.26,3.43,0.77c0.98,0.49,1.81,1.16,2.5,2.02c0.68,0.87,1.19,1.85,1.54,2.91
	c0.32,1.09,0.48,2.23,0.48,3.42c0,1.22-0.17,2.37-0.51,3.46c-0.11,0.32-0.21,0.59-0.32,0.8h2.75v4.7h-1.79
	c-1.58,0-2.37-0.79-2.37-2.37c-0.64,0.73-1.4,1.3-2.27,1.73c-1,0.49-2.14,0.75-3.43,0.77h-1.95h-1.98c-0.85,0-1.57,0.13-2.14,0.38
	c-0.66,0.28-1.2,0.77-1.6,1.47c-0.41,0.68-0.61,1.63-0.61,2.85v0.45c0,0.87-0.2,1.51-0.61,1.92c-0.43,0.43-1.05,0.64-1.86,0.64
	c-0.81,0-1.43-0.21-1.86-0.64c-0.41-0.41-0.61-1.05-0.61-1.92v-0.64c0-1.75,0.23-3.23,0.7-4.45c0.45-1.24,1.09-2.22,1.92-2.94
	c0.77-0.7,1.72-1.24,2.85-1.6c0.17-0.06,0.43-0.14,0.77-0.22c-0.26-0.66-0.39-1.03-0.42-1.12c-0.34-1.09-0.51-2.24-0.51-3.46
	c0-1.24,0.17-2.37,0.51-3.39c0.32-1.05,0.82-1.99,1.5-2.85c0.66-0.83,1.48-1.48,2.46-1.95C193.9,101.66,195.04,101.42,196.3,101.42z
	 M197.71,106.22c-0.41-0.32-0.87-0.48-1.41-0.48c-0.53,0-0.99,0.13-1.38,0.38c-0.41,0.21-0.73,0.55-0.96,1.02
	c-0.26,0.43-0.45,0.9-0.58,1.41c-0.13,0.55-0.19,1.11-0.19,1.66c0,0.53,0.06,1.09,0.19,1.66c0.13,0.58,0.32,1.14,0.58,1.7
	c0.19,0.47,0.51,0.89,0.96,1.25c0.4,0.34,0.86,0.51,1.38,0.51c0.58,0,1.05-0.14,1.41-0.42c0.38-0.26,0.7-0.62,0.96-1.09
	c0.26-0.45,0.45-0.94,0.58-1.47c0.11-0.6,0.16-1.15,0.16-1.66c0-0.49-0.05-1.06-0.16-1.7c-0.13-0.6-0.32-1.13-0.58-1.6
	C198.39,106.89,198.07,106.5,197.71,106.22z M216.63,101.29c0.79,0,1.38,0.2,1.76,0.61c0.38,0.43,0.58,1.02,0.58,1.79v12.87
	c0,0.98-0.22,1.72-0.67,2.21c-0.45,0.49-1.13,0.74-2.05,0.74h-11.36v-4.7h9.38v-11.11C214.26,102.09,215.05,101.29,216.63,101.29z
	 M209.56,122.76c0.53,0.04,0.98,0.16,1.34,0.35c0.36,0.21,0.68,0.52,0.96,0.93c0.19,0.34,0.31,0.78,0.35,1.31
	c-0.04,0.55-0.16,1-0.35,1.34c-0.21,0.41-0.53,0.73-0.96,0.96c-0.34,0.19-0.79,0.31-1.34,0.35c-0.53-0.04-0.97-0.16-1.31-0.35
	c-0.38-0.23-0.69-0.55-0.93-0.96c-0.23-0.43-0.35-0.87-0.35-1.34c0-0.45,0.12-0.89,0.35-1.31c0.24-0.43,0.54-0.74,0.93-0.93
	C208.59,122.92,209.02,122.81,209.56,122.76z M216.57,122.76c0.53,0.04,0.98,0.16,1.34,0.35c0.36,0.21,0.68,0.52,0.96,0.93
	c0.19,0.34,0.31,0.78,0.35,1.31c-0.04,0.55-0.16,1-0.35,1.34c-0.24,0.41-0.55,0.73-0.96,0.96c-0.34,0.19-0.79,0.31-1.34,0.35
	c-0.53-0.04-0.97-0.16-1.31-0.35c-0.38-0.23-0.69-0.55-0.93-0.96c-0.23-0.43-0.35-0.87-0.35-1.34c0-0.45,0.12-0.89,0.35-1.31
	c0.24-0.43,0.54-0.74,0.93-0.93C215.6,122.92,216.03,122.81,216.57,122.76z M228.1,101.35h0.19c1.71,0,3.2,0.25,4.48,0.74
	c1.24,0.49,2.22,1.16,2.94,2.02c0.75,0.87,1.29,1.86,1.63,2.94c0.32,1.05,0.48,2.18,0.48,3.39v4.35h2.69v4.7h-1.18
	c-0.94,0-1.6-0.34-1.98-1.02l-0.29,0.35c-0.47,0.45-1.2,0.67-2.21,0.67h-10.69c-0.79,0-1.39-0.19-1.79-0.58
	c-0.41-0.38-0.61-0.97-0.61-1.76c0-1.58,0.8-2.37,2.4-2.37h8.9v-4.58c0-0.68-0.14-1.33-0.42-1.95c-0.23-0.51-0.79-0.98-1.66-1.41
	c-0.68-0.34-1.64-0.51-2.88-0.51c-0.85,0-1.49-0.21-1.92-0.64c-0.43-0.43-0.64-1.06-0.64-1.89c0-0.81,0.21-1.43,0.64-1.86
	C226.58,101.56,227.22,101.35,228.1,101.35z M247.86,92.27c0.53,0.04,0.98,0.16,1.34,0.35c0.36,0.21,0.68,0.52,0.96,0.93
	c0.19,0.34,0.31,0.78,0.35,1.31c-0.04,0.55-0.16,1-0.35,1.34c-0.24,0.43-0.56,0.75-0.96,0.96c-0.34,0.19-0.79,0.31-1.34,0.35
	c-0.53-0.04-0.97-0.16-1.31-0.35c-0.38-0.23-0.69-0.55-0.93-0.96c-0.24-0.43-0.35-0.87-0.35-1.34c0-0.45,0.12-0.89,0.35-1.31
	c0.24-0.43,0.54-0.74,0.93-0.93C246.89,92.43,247.32,92.31,247.86,92.27z M254.87,92.27c0.53,0.04,0.98,0.16,1.34,0.35
	c0.36,0.21,0.68,0.52,0.96,0.93c0.19,0.34,0.31,0.78,0.35,1.31c-0.04,0.55-0.16,1-0.35,1.34c-0.21,0.43-0.53,0.75-0.96,0.96
	c-0.34,0.19-0.79,0.31-1.34,0.35c-0.53-0.04-0.97-0.16-1.31-0.35c-0.38-0.23-0.69-0.55-0.93-0.96c-0.24-0.43-0.35-0.87-0.35-1.34
	c0-0.45,0.12-0.89,0.35-1.31c0.24-0.43,0.54-0.74,0.93-0.93C253.89,92.43,254.33,92.31,254.87,92.27z M250.67,101.51h4.99
	c0.83,0,1.45,0.19,1.86,0.58c0.41,0.41,0.61,1.02,0.61,1.86v10.85h2.91l0.03,4.7h-1.22c-0.87,0-1.5-0.27-1.89-0.8
	c-0.32,0.53-0.85,0.8-1.6,0.8h-17.12v-4.7h4.45c-0.68-1.51-1-3.19-0.96-5.02c0.06-1.79,0.48-3.35,1.25-4.67
	c0.64-1.11,1.54-1.98,2.69-2.62C247.87,101.83,249.2,101.51,250.67,101.51z M253.46,106.19h-2.4c-1.09,0-1.91,0.25-2.46,0.74
	c-1.07,0.94-1.4,2.46-0.99,4.58c0.41,2.2,1.41,3.3,3.01,3.3h2.85V106.19z M264.45,92.04c0.53,0.04,0.98,0.16,1.34,0.35
	c0.36,0.21,0.68,0.52,0.96,0.93c0.19,0.34,0.31,0.78,0.35,1.31c-0.04,0.55-0.16,1-0.35,1.34c-0.21,0.41-0.53,0.73-0.96,0.96
	c-0.34,0.19-0.79,0.31-1.34,0.35c-0.53-0.04-0.97-0.16-1.31-0.35c-0.38-0.23-0.69-0.55-0.93-0.96c-0.23-0.43-0.35-0.87-0.35-1.34
	c0-0.45,0.12-0.89,0.35-1.31c0.24-0.43,0.54-0.74,0.93-0.93C263.48,92.2,263.92,92.08,264.45,92.04z M271.46,92.04
	c0.53,0.04,0.98,0.16,1.34,0.35c0.36,0.21,0.68,0.52,0.96,0.93c0.19,0.34,0.31,0.78,0.35,1.31c-0.04,0.55-0.16,1-0.35,1.34
	c-0.24,0.41-0.55,0.73-0.96,0.96c-0.34,0.19-0.79,0.31-1.34,0.35c-0.53-0.04-0.97-0.16-1.31-0.35c-0.38-0.23-0.69-0.55-0.93-0.96
	c-0.23-0.43-0.35-0.87-0.35-1.34c0-0.45,0.12-0.89,0.35-1.31c0.24-0.43,0.54-0.74,0.93-0.93C270.49,92.2,270.93,92.08,271.46,92.04z
	 M271.53,101.29c0.79,0,1.38,0.2,1.76,0.61c0.38,0.43,0.58,1.02,0.58,1.79v12.87c0,0.98-0.22,1.72-0.67,2.21
	c-0.45,0.49-1.13,0.74-2.05,0.74h-11.36v-4.7h9.38v-11.11C269.16,102.09,269.95,101.29,271.53,101.29z M291.81,101.29
	c1.22,0,2.36,0.26,3.42,0.77c0.96,0.49,1.78,1.17,2.46,2.05c1.28,1.62,2.05,3.8,2.3,6.53c0.15,1.75,0.24,3.14,0.26,4.16h3.01v4.7
	h-1.18c-0.92,0-1.57-0.26-1.95-0.77c-0.15,1.34-0.43,2.54-0.83,3.58c-0.51,1.26-1.21,2.26-2.08,3.01c-1.68,1.47-4.15,2.25-7.39,2.34
	c-1.62,0.06-2.73-0.14-3.33-0.61c-0.34-0.26-0.58-0.58-0.7-0.96c-0.15-0.36-0.19-0.79-0.13-1.28c0.09-0.77,0.35-1.33,0.8-1.7
	c0.43-0.34,1.06-0.51,1.89-0.51h0.61c1.51,0,2.57-0.06,3.17-0.19c1-0.26,1.76-0.91,2.27-1.95c0.19-0.36,0.34-0.87,0.45-1.54
	c-0.9,0.38-1.91,0.58-3.04,0.58c-1.32,0-2.48-0.26-3.46-0.77c-0.94-0.49-1.76-1.18-2.47-2.08c-0.68-0.87-1.18-1.86-1.5-2.94
	c-0.34-1.09-0.51-2.24-0.51-3.46c0-1.13,0.17-2.26,0.51-3.39c0.36-1.15,0.86-2.1,1.5-2.85c0.66-0.85,1.48-1.51,2.47-1.98
	C289.38,101.54,290.53,101.29,291.81,101.29z M291.81,105.61c-0.58,0.04-1.05,0.18-1.41,0.42c-0.36,0.21-0.68,0.54-0.96,0.99
	c-0.26,0.43-0.45,0.91-0.58,1.44c-0.13,0.53-0.19,1.08-0.19,1.63c0,0.51,0.06,1.08,0.19,1.7c0.13,0.6,0.32,1.15,0.58,1.66
	c0.26,0.53,0.58,0.96,0.96,1.28c0.36,0.34,0.83,0.51,1.41,0.51c0.55,0,1.01-0.14,1.38-0.42c0.43-0.3,0.75-0.66,0.96-1.09
	c0.26-0.45,0.45-0.95,0.58-1.5c0.11-0.6,0.16-1.14,0.16-1.63c0-0.49-0.05-1.06-0.16-1.7c-0.09-0.45-0.28-0.98-0.58-1.6
	c-0.28-0.55-0.6-0.96-0.96-1.22C292.8,105.79,292.34,105.63,291.81,105.61z M308.85,101.55h11.27c1.73,0,3.21,0.25,4.45,0.74
	c1.19,0.47,2.17,1.14,2.91,2.02c0.75,0.83,1.29,1.8,1.63,2.91c0.32,1.11,0.48,2.29,0.48,3.55c0,1.45-0.16,2.61-0.48,3.49l-0.19,0.54
	c-0.23,0.6-0.67,1.31-1.31,2.14l-0.13,0.16c-0.64,0.79-1.61,1.43-2.91,1.92c-1.24,0.32-2.72,0.48-4.45,0.48h-18.15v-4.7h5.5
	c-0.19-0.34-0.37-0.78-0.54-1.31c-0.28-0.9-0.42-1.87-0.42-2.91c0-1.02,0.14-1.98,0.42-2.88c0.19-0.55,0.39-1.02,0.61-1.41
	c-0.24-0.09-0.45-0.22-0.64-0.42c-0.41-0.41-0.61-1.02-0.61-1.86c0-0.83,0.2-1.45,0.61-1.86
	C307.31,101.75,307.96,101.55,308.85,101.55z M319.93,106.51h-1.06c0.21,0.43,0.41,0.87,0.58,1.34c0.28,0.9,0.42,1.85,0.42,2.85
	c0,1.05-0.14,2.02-0.42,2.91c-0.13,0.38-0.29,0.78-0.48,1.18h0.96c1.22,0,2.16-0.2,2.85-0.61c0.68-0.43,1.16-0.95,1.44-1.57
	c0.28-0.64,0.42-1.35,0.42-2.14c0-0.75-0.14-1.43-0.42-2.05c-0.28-0.6-0.76-1.07-1.44-1.41
	C322.11,106.68,321.16,106.51,319.93,106.51z M313.17,106.67c-0.47,0-0.85,0.11-1.15,0.32c-0.32,0.19-0.6,0.48-0.83,0.86
	c-0.24,0.36-0.39,0.77-0.48,1.22c-0.09,0.41-0.13,0.86-0.13,1.38c0,0.51,0.04,0.98,0.13,1.41c0.11,0.53,0.27,1,0.48,1.41
	c0.23,0.47,0.51,0.83,0.83,1.09c0.3,0.28,0.68,0.42,1.15,0.42c0.45,0,0.84-0.12,1.18-0.35c0.34-0.21,0.61-0.51,0.8-0.9
	c0.23-0.38,0.39-0.81,0.48-1.28c0.11-0.49,0.16-0.95,0.16-1.38c0-0.41-0.05-0.87-0.16-1.41c-0.09-0.49-0.25-0.95-0.48-1.38
	c-0.21-0.45-0.48-0.79-0.8-1.02C313.99,106.8,313.6,106.67,313.17,106.67z M353.75,101.87c0.28,0,0.48,0.01,0.61,0.03
	c1.26,0.13,1.89,0.87,1.89,2.24v10.66h2.62v4.7h-4.9c-0.77,0-1.33-0.17-1.7-0.51l-0.19-0.26c-3.43,0.6-6.06,0.57-7.87-0.1
	c-1.15-0.45-2.09-1.07-2.82-1.86c-0.7-0.77-1.22-1.67-1.54-2.72c-0.32-1.07-0.48-2.19-0.48-3.36c0-1.22,0.16-2.35,0.48-3.39
	c0.32-1.09,0.83-2.03,1.54-2.82c0.75-0.81,1.69-1.45,2.82-1.92C345.36,102.1,348.54,101.87,353.75,101.87z M351.7,114.16v-7.62
	c-2.8-0.13-4.73,0.06-5.79,0.58c-0.66,0.32-1.12,0.77-1.38,1.34c-0.26,0.53-0.38,1.18-0.38,1.95s0.13,1.45,0.38,2.05
	c0.3,0.66,0.77,1.17,1.41,1.54C347.11,114.68,349.03,114.73,351.7,114.16z M364.96,101.35h6.43c1.71,0,3.2,0.25,4.48,0.74
	c1.24,0.49,2.22,1.16,2.95,2.02c0.7,0.83,1.24,1.81,1.6,2.94c0.34,1.13,0.51,2.26,0.51,3.39l-0.03,6.34c0,0.92-0.24,1.6-0.74,2.05
	c-0.51,0.45-1.25,0.67-2.21,0.67h-20.39v-4.7h18.56v-4.58c0-0.73-0.13-1.38-0.38-1.95c-0.24-0.51-0.79-0.98-1.66-1.41
	c-0.68-0.34-1.64-0.51-2.88-0.51h-6.24c-0.87,0-1.53-0.21-1.95-0.64c-0.4-0.41-0.61-1.03-0.61-1.89c0-0.83,0.2-1.45,0.61-1.86
	C363.42,101.56,364.07,101.35,364.96,101.35z M370.85,122.86c0.53,0.04,0.98,0.16,1.34,0.35c0.36,0.21,0.68,0.52,0.96,0.93
	c0.19,0.34,0.31,0.78,0.35,1.31c-0.04,0.55-0.16,1-0.35,1.34c-0.24,0.43-0.56,0.75-0.96,0.96c-0.34,0.19-0.79,0.31-1.34,0.35
	c-0.53-0.04-0.97-0.16-1.31-0.35c-0.38-0.23-0.69-0.55-0.93-0.96c-0.24-0.43-0.35-0.87-0.35-1.34c0-0.45,0.12-0.89,0.35-1.31
	c0.24-0.43,0.54-0.74,0.93-0.93C369.88,123.02,370.32,122.9,370.85,122.86z M385.8,93.29c1.58,0,2.37,0.79,2.37,2.37v19.14h3.01v4.7
	h-4.99c-0.9,0-1.57-0.25-2.02-0.74c-0.45-0.49-0.67-1.22-0.67-2.18V95.66c0-0.75,0.19-1.33,0.58-1.76
	C384.45,93.49,385.03,93.29,385.8,93.29z M397.36,92.04c0.53,0.04,0.98,0.16,1.34,0.35c0.36,0.21,0.68,0.52,0.96,0.93
	c0.19,0.34,0.31,0.78,0.35,1.31c-0.04,0.55-0.16,1-0.35,1.34c-0.21,0.41-0.53,0.73-0.96,0.96c-0.34,0.19-0.79,0.31-1.34,0.35
	c-0.53-0.04-0.97-0.16-1.31-0.35c-0.38-0.23-0.69-0.55-0.93-0.96c-0.23-0.43-0.35-0.87-0.35-1.34c0-0.45,0.12-0.89,0.35-1.31
	c0.24-0.43,0.54-0.74,0.93-0.93C396.39,92.2,396.83,92.08,397.36,92.04z M404.37,92.04c0.53,0.04,0.98,0.16,1.34,0.35
	c0.36,0.21,0.68,0.52,0.96,0.93c0.19,0.34,0.31,0.78,0.35,1.31c-0.04,0.55-0.16,1-0.35,1.34c-0.23,0.41-0.55,0.73-0.96,0.96
	c-0.34,0.19-0.79,0.31-1.34,0.35c-0.53-0.04-0.97-0.16-1.31-0.35c-0.38-0.23-0.69-0.55-0.93-0.96c-0.23-0.43-0.35-0.87-0.35-1.34
	c0-0.45,0.12-0.89,0.35-1.31c0.24-0.43,0.54-0.74,0.93-0.93C403.4,92.2,403.84,92.08,404.37,92.04z M401.04,101.16
	c0.79,0,1.38,0.19,1.76,0.58c0.38,0.38,0.58,0.98,0.58,1.79v11.27h4.7v4.7h-2.94c-1.09,0-1.8-0.39-2.14-1.18
	c-0.13,0.21-0.23,0.35-0.32,0.42c-0.45,0.51-1.13,0.77-2.05,0.77h-10.75v-4.7h8.77v-11.27
	C398.64,101.95,399.44,101.16,401.04,101.16z M414.19,101.35h6.43c1.71,0,3.2,0.25,4.48,0.74c1.24,0.49,2.22,1.16,2.94,2.02
	c0.7,0.83,1.24,1.81,1.6,2.94c0.34,1.13,0.51,2.26,0.51,3.39v4.35h2.88v4.7h-1.18c-1.05,0-1.74-0.38-2.08-1.15
	c-0.13,0.19-0.26,0.35-0.38,0.48c-0.51,0.45-1.25,0.67-2.21,0.67h-20.39v-4.7h18.56v-4.58c0-0.73-0.13-1.38-0.38-1.95
	c-0.23-0.51-0.79-0.98-1.66-1.41c-0.68-0.34-1.64-0.51-2.88-0.51h-6.24c-0.87,0-1.53-0.21-1.95-0.64c-0.41-0.41-0.61-1.03-0.61-1.89
	c0-0.83,0.2-1.45,0.61-1.86C412.64,101.56,413.29,101.35,414.19,101.35z M436.41,92.04c0.53,0.04,0.98,0.16,1.34,0.35
	c0.36,0.21,0.68,0.52,0.96,0.93c0.19,0.34,0.31,0.78,0.35,1.31c-0.04,0.55-0.16,1-0.35,1.34c-0.21,0.41-0.53,0.73-0.96,0.96
	c-0.34,0.19-0.79,0.31-1.34,0.35c-0.53-0.04-0.97-0.16-1.31-0.35c-0.38-0.23-0.69-0.55-0.93-0.96c-0.24-0.43-0.35-0.87-0.35-1.34
	c0-0.45,0.12-0.89,0.35-1.31c0.23-0.43,0.54-0.74,0.93-0.93C435.44,92.2,435.87,92.08,436.41,92.04z M443.42,92.04
	c0.53,0.04,0.98,0.16,1.34,0.35c0.36,0.21,0.68,0.52,0.96,0.93c0.19,0.34,0.31,0.78,0.35,1.31c-0.04,0.55-0.16,1-0.35,1.34
	c-0.23,0.41-0.55,0.73-0.96,0.96c-0.34,0.19-0.79,0.31-1.34,0.35c-0.53-0.04-0.97-0.16-1.31-0.35c-0.38-0.23-0.69-0.55-0.93-0.96
	c-0.24-0.43-0.35-0.87-0.35-1.34c0-0.45,0.12-0.89,0.35-1.31c0.23-0.43,0.54-0.74,0.93-0.93C442.44,92.2,442.88,92.08,443.42,92.04z
	 M443.48,101.29c0.79,0,1.38,0.2,1.76,0.61c0.38,0.43,0.58,1.02,0.58,1.79v12.87c0,0.98-0.22,1.72-0.67,2.21
	c-0.45,0.49-1.13,0.74-2.05,0.74h-11.36v-4.7h9.38v-11.11C441.11,102.09,441.9,101.29,443.48,101.29z M458.13,93.29
	c1.58,0,2.37,0.79,2.37,2.37v19.14h3.01v4.7h-4.99c-0.9,0-1.57-0.25-2.02-0.74c-0.45-0.49-0.67-1.22-0.67-2.18V95.66
	c0-0.75,0.19-1.33,0.58-1.76C456.79,93.49,457.36,93.29,458.13,93.29z M474.53,101.51c1.24,0,2.37,0.25,3.39,0.74
	c0.96,0.49,1.78,1.16,2.46,2.02c0.64,0.83,1.14,1.8,1.5,2.91c0.34,1.02,0.51,2.14,0.51,3.36c0,1.24-0.17,2.38-0.51,3.42
	c-0.11,0.3-0.21,0.58-0.32,0.83c-0.28,0.75-0.72,1.47-1.31,2.18c-0.64,0.79-1.42,1.41-2.34,1.86c-1,0.45-2.13,0.67-3.39,0.67h-12.32
	v-4.7h5.34c-0.17-0.34-0.3-0.67-0.38-0.99c-0.34-1.05-0.51-2.19-0.51-3.42c0-1.24,0.17-2.37,0.51-3.39c0.36-1.09,0.86-2.03,1.5-2.82
	c0.66-0.83,1.47-1.48,2.43-1.95C472.06,101.75,473.2,101.51,474.53,101.51z M474.53,105.77c-0.55,0.04-1.01,0.18-1.38,0.42
	c-1.39,0.87-1.94,2.42-1.66,4.64c0.19,1.62,0.75,2.79,1.66,3.52c0.4,0.34,0.86,0.51,1.38,0.51c0.51,0,0.97-0.14,1.38-0.42
	c1.17-0.83,1.75-2.22,1.73-4.16c-0.04-1.83-0.62-3.18-1.73-4.03C475.52,105.95,475.06,105.79,474.53,105.77z M507.91,93.23
	c0.83,0,1.45,0.2,1.86,0.61c0.4,0.41,0.61,1.06,0.61,1.95v19.01h3.07l-0.03,4.7h-1.15c-0.9,0-1.54-0.25-1.92-0.74
	c-0.11,1.32-0.34,2.43-0.7,3.33c-0.49,1.24-1.16,2.22-2.02,2.94c-0.9,0.77-1.88,1.3-2.94,1.6c-1.09,0.34-2.26,0.51-3.52,0.51
	c-1.3,0-2.47-0.17-3.52-0.51c-1.13-0.36-2.08-0.9-2.85-1.6c-0.83-0.73-1.47-1.71-1.92-2.94c-0.47-1.19-0.7-2.68-0.7-4.45v-5.06
	c0-0.9,0.2-1.55,0.61-1.95c0.4-0.41,1.02-0.61,1.86-0.61c0.83,0,1.45,0.2,1.86,0.61c0.41,0.41,0.61,1.06,0.61,1.95v4.86
	c0,1.24,0.2,2.2,0.61,2.88c0.43,0.68,0.96,1.16,1.6,1.44c0.62,0.28,1.33,0.42,2.14,0.42c0.79,0,1.47-0.14,2.05-0.42
	s1.05-0.76,1.41-1.44c0.34-0.68,0.51-1.64,0.51-2.88V95.79c0-0.9,0.2-1.55,0.61-1.95C506.42,93.43,507.05,93.23,507.91,93.23z
	 M532.88,93.16c0.41,0.09,0.8,0.29,1.18,0.61c0.34,0.28,0.59,0.62,0.74,1.02c0.19,0.53,0.2,1.01,0.03,1.44
	c-0.17,0.47-0.48,0.89-0.93,1.25l-3.55,2.75l-3.68,2.78c-0.28,0.21-0.87,0.63-1.79,1.25c-0.64,0.43-1.22,0.83-1.73,1.22H531
	c0.24,0,0.41,0.01,0.51,0.03c1.54,0.11,2.82,0.35,3.84,0.74c1.24,0.49,2.22,1.16,2.94,2.02c0.7,0.83,1.24,1.8,1.6,2.91
	c0.34,1.15,0.5,2.41,0.48,3.78l-0.03,1.82c-0.02,0.92-0.27,1.59-0.74,2.02c-0.53,0.47-1.26,0.7-2.18,0.7h-25.25v-4.7h23.46v-0.06
	c0-0.94-0.14-1.72-0.42-2.34c-0.23-0.53-0.78-1-1.63-1.41c-0.77-0.38-1.73-0.58-2.88-0.58h-11.94c-0.7,0-1.38-0.17-2.02-0.51
	c-0.49-0.28-0.85-0.7-1.09-1.28c-0.21-0.6-0.19-1.21,0.06-1.82c0.24-0.53,0.72-1.12,1.44-1.76l13.67-11.36l0.35-0.29l0.42-0.19
	C531.99,93.07,532.42,93.06,532.88,93.16z M177.27,157.34h6.94c2.54,0,4.62,0.79,6.24,2.37c1.64,1.58,2.47,3.62,2.47,6.11
	c0,2.39-0.82,4.38-2.47,5.98c-1.62,1.58-3.65,2.37-6.08,2.37h-4.58v6.24c0,1.79-0.89,2.69-2.66,2.69c-1.77,0-2.66-0.9-2.66-2.69
	V160.1C174.49,158.26,175.41,157.34,177.27,157.34z M179.8,162.62v6.27h4.48c0.98,0,1.76-0.28,2.34-0.83c0.6-0.55,0.9-1.31,0.9-2.27
	c0-1-0.32-1.78-0.96-2.34c-0.64-0.55-1.57-0.83-2.78-0.83H179.8z M198.11,157.38h6.05c2.26,0,4.21,0.65,5.86,1.95
	c1.66,1.28,2.88,2.88,3.65,4.8c0.77,1.92,1.15,4,1.15,6.24c0,2.2-0.45,4.26-1.34,6.18c-0.87,1.9-2.19,3.47-3.94,4.7
	c-1.75,1.24-3.74,1.86-5.98,1.86h-5.95c-1.07,0-1.8-0.17-2.21-0.51c-0.38-0.36-0.58-1.12-0.58-2.27v-19.97
	C194.82,158.37,195.92,157.38,198.11,157.38z M200.13,162.69v15.11h3.26c1.86,0,3.32-0.74,4.38-2.21c1.07-1.47,1.6-3.21,1.6-5.22
	c0-2.09-0.49-3.89-1.47-5.41c-0.98-1.51-2.34-2.27-4.06-2.27H200.13z M219.26,157.38h9.02c1.79,0,2.69,0.89,2.69,2.66
	c0,1.77-0.9,2.66-2.69,2.66h-6.5v5.02h4.58c1.75,0,2.62,0.9,2.62,2.69c0,1.75-0.87,2.62-2.62,2.62h-4.58v7.65
	c0,1.62-0.9,2.43-2.69,2.43c-1.77,0-2.66-0.81-2.66-2.43v-20.32C216.44,158.37,217.38,157.38,219.26,157.38z M266.59,155.97
	c0.56,0.04,1,0.16,1.34,0.35c0.41,0.21,0.73,0.52,0.96,0.93c0.24,0.41,0.35,0.85,0.35,1.34c0,0.47-0.12,0.91-0.35,1.31
	c-0.23,0.41-0.55,0.73-0.96,0.96c-0.4,0.23-0.85,0.35-1.34,0.35c-0.47,0-0.91-0.12-1.31-0.35c-0.38-0.21-0.69-0.53-0.93-0.96
	c-0.24-0.41-0.35-0.84-0.35-1.31c0-0.47,0.12-0.92,0.35-1.34c0.23-0.43,0.54-0.74,0.93-0.93
	C265.62,156.13,266.06,156.01,266.59,155.97z M241.76,164.83c0.81,0,1.42,0.2,1.82,0.61c0.43,0.43,0.64,1.07,0.64,1.92v6.18
	c0,1.22,0.17,2.17,0.51,2.85c0.41,0.85,0.86,1.4,1.38,1.63c0.58,0.26,1.23,0.38,1.95,0.38h10.91c-0.68-1.54-0.99-3.21-0.93-5.02
	c0.06-1.83,0.47-3.39,1.22-4.67c0.62-1.09,1.53-1.96,2.72-2.62c1.17-0.64,2.51-0.96,4-0.96h4.99c0.83,0,1.44,0.19,1.82,0.58
	c0.43,0.43,0.64,1.05,0.64,1.86v10.85h2.85v4.7h-1.18c-0.85,0-1.47-0.26-1.86-0.77c-0.3,0.51-0.82,0.77-1.57,0.77h-23.43
	c-1.09,0-2.2-0.17-3.33-0.51c-1.05-0.32-2.02-0.85-2.91-1.6c-0.85-0.75-1.51-1.71-1.98-2.88c-0.49-1.28-0.74-2.75-0.74-4.42v-6.34
	c0-0.87,0.2-1.51,0.61-1.92C240.31,165.04,240.92,164.83,241.76,164.83z M268.77,169.79h-2.43c-1.07,0-1.88,0.25-2.43,0.74
	c-1.07,0.94-1.41,2.46-1.02,4.58c0.41,2.2,1.41,3.3,3.01,3.3h2.88V169.79z M281.85,156.77c0.77,0,1.34,0.2,1.73,0.61
	c0.41,0.41,0.61,1,0.61,1.79v19.23H287v4.7h-1.18c-1.02,0-1.72-0.34-2.08-1.02c-0.02,0.02-0.06,0.07-0.13,0.16
	c-0.04,0.09-0.09,0.15-0.13,0.19c-0.45,0.45-1.12,0.67-2.02,0.67h-6.5v-4.7h4.51v-19.23C279.48,157.57,280.27,156.77,281.85,156.77z
	 M298.03,165.12c1.24,0,2.37,0.25,3.39,0.74c0.96,0.49,1.78,1.16,2.46,2.02c0.64,0.83,1.14,1.8,1.5,2.91
	c0.34,1.02,0.51,2.14,0.51,3.36c0,1.24-0.17,2.38-0.51,3.42c-0.11,0.3-0.21,0.58-0.32,0.83h2.91v4.7h-1.82c-1.6,0-2.4-0.79-2.4-2.37
	v-0.16c-0.64,0.79-1.42,1.41-2.34,1.86c-1,0.45-2.13,0.67-3.39,0.67H285.7v-4.7h5.35c-0.17-0.34-0.3-0.67-0.38-0.99
	c-0.34-1.05-0.51-2.19-0.51-3.42s0.17-2.37,0.51-3.39c0.36-1.09,0.86-2.03,1.5-2.82c0.66-0.83,1.47-1.48,2.43-1.95
	C295.56,165.36,296.7,165.12,298.03,165.12z M298.03,169.38c-0.55,0.04-1.01,0.18-1.38,0.42c-1.39,0.87-1.94,2.42-1.66,4.64
	c0.19,1.62,0.75,2.79,1.66,3.52c0.41,0.34,0.86,0.51,1.38,0.51c0.51,0,0.97-0.14,1.38-0.42c1.17-0.83,1.75-2.22,1.73-4.16
	c-0.04-1.83-0.62-3.18-1.73-4.03C299.02,169.56,298.56,169.4,298.03,169.38z M327.41,156.77c0.4,0.09,0.8,0.29,1.18,0.61
	c0.34,0.28,0.59,0.62,0.74,1.02c0.19,0.53,0.2,1.01,0.03,1.44c-0.17,0.47-0.48,0.89-0.93,1.25l-3.55,2.75l-3.68,2.78
	c-0.28,0.21-0.87,0.63-1.79,1.25c-0.64,0.43-1.22,0.83-1.73,1.22h7.84c0.24,0,0.41,0.01,0.51,0.03c1.54,0.11,2.82,0.35,3.84,0.74
	c1.24,0.49,2.22,1.16,2.94,2.02c0.7,0.83,1.24,1.8,1.6,2.91c0.34,1.15,0.5,2.41,0.48,3.78l-0.03,1.82
	c-0.02,0.92-0.27,1.59-0.74,2.02c-0.53,0.47-1.26,0.7-2.18,0.7h-25.25v-4.7h23.46v-0.06c0-0.94-0.14-1.72-0.42-2.34
	c-0.23-0.53-0.78-1-1.63-1.41c-0.77-0.38-1.73-0.58-2.88-0.58H313.3c-0.7,0-1.38-0.17-2.02-0.51c-0.49-0.28-0.85-0.7-1.09-1.28
	c-0.21-0.6-0.19-1.21,0.06-1.82c0.24-0.53,0.72-1.12,1.44-1.76l13.67-11.36l0.35-0.29l0.42-0.19
	C326.52,156.67,326.94,156.66,327.41,156.77z M371.13,156.77c0.79,0,1.38,0.19,1.76,0.58c0.38,0.41,0.58,1,0.58,1.79v19.27h3.01
	l-0.03,4.7h-1.18c-1.09,0-1.8-0.39-2.14-1.18c-0.06,0.11-0.17,0.27-0.32,0.48c-0.47,0.47-1.15,0.7-2.05,0.7h-16.96
	c-1.32,0-2.44-0.14-3.36-0.42c-1.02-0.3-2.01-0.84-2.94-1.63c-0.87-0.75-1.55-1.72-2.02-2.91c-0.49-1.28-0.74-2.77-0.74-4.48v-6.4
	c0-0.9,0.2-1.55,0.61-1.95c0.41-0.41,1.02-0.61,1.86-0.61c0.85,0,1.48,0.2,1.89,0.61c0.41,0.41,0.61,1.06,0.61,1.95v6.21
	c0,1.24,0.17,2.2,0.51,2.88c0.41,0.85,0.87,1.4,1.41,1.63c0.55,0.28,1.2,0.42,1.95,0.42h15.2v-19.27
	C368.76,157.56,369.55,156.77,371.13,156.77z M360.02,161.92h1.31c0.43,0,0.78,0.12,1.06,0.35c0.24,0.23,0.35,0.58,0.35,1.02
	c0,0.47-0.12,0.82-0.35,1.06c-0.23,0.23-0.59,0.35-1.06,0.35h-0.8c-0.51,0-0.96,0.06-1.34,0.19c-0.3,0.11-0.5,0.26-0.61,0.45
	c-0.11,0.21-0.16,0.43-0.16,0.64c0,0.3,0.11,0.57,0.32,0.8c0.19,0.3,0.49,0.52,0.9,0.67c0.45,0.17,0.95,0.26,1.5,0.26h0.26
	c0.45,0,0.8,0.1,1.06,0.29c0.21,0.19,0.34,0.54,0.38,1.06c0,0.45-0.13,0.79-0.38,1.02c-0.24,0.23-0.59,0.35-1.06,0.35h-4.45
	c-0.45,0-0.79-0.12-1.02-0.35c-0.21-0.21-0.32-0.55-0.32-1.02c0-0.19,0.03-0.36,0.1-0.51c0.11-0.15,0.24-0.28,0.38-0.38
	c0.15-0.09,0.36-0.15,0.64-0.19h0.54c-0.51-0.38-0.9-0.82-1.15-1.31c-0.26-0.47-0.38-0.96-0.38-1.47c0-0.43,0.1-0.84,0.29-1.25
	c0.17-0.38,0.45-0.73,0.83-1.02c0.36-0.34,0.81-0.59,1.34-0.74C358.77,162.01,359.38,161.92,360.02,161.92z M382.08,156.77
	c0.77,0,1.34,0.2,1.73,0.61c0.41,0.41,0.61,1,0.61,1.79v19.23h2.82v4.7h-1.18c-1.02,0-1.72-0.34-2.08-1.02
	c-0.02,0.02-0.06,0.07-0.13,0.16c-0.04,0.09-0.09,0.15-0.13,0.19c-0.45,0.45-1.12,0.67-2.02,0.67h-6.5v-4.7h4.51v-19.23
	C379.71,157.57,380.5,156.77,382.08,156.77z M398.25,165.12c1.24,0,2.37,0.25,3.39,0.74c0.96,0.49,1.78,1.16,2.47,2.02
	c0.64,0.83,1.14,1.8,1.5,2.91c0.34,1.02,0.51,2.14,0.51,3.36c0,1.24-0.17,2.38-0.51,3.42c-0.11,0.3-0.21,0.58-0.32,0.83h2.91v4.7
	h-1.82c-1.6,0-2.4-0.79-2.4-2.37v-0.16c-0.64,0.79-1.42,1.41-2.34,1.86c-1,0.45-2.13,0.67-3.39,0.67h-12.32v-4.7h5.34
	c-0.17-0.34-0.3-0.67-0.38-0.99c-0.34-1.05-0.51-2.19-0.51-3.42s0.17-2.37,0.51-3.39c0.36-1.09,0.86-2.03,1.5-2.82
	c0.66-0.83,1.47-1.48,2.43-1.95C395.79,165.36,396.93,165.12,398.25,165.12z M398.25,169.38c-0.56,0.04-1.01,0.18-1.38,0.42
	c-1.39,0.87-1.94,2.42-1.66,4.64c0.19,1.62,0.75,2.79,1.66,3.52c0.41,0.34,0.86,0.51,1.38,0.51c0.51,0,0.97-0.14,1.38-0.42
	c1.17-0.83,1.75-2.22,1.73-4.16c-0.04-1.83-0.62-3.18-1.73-4.03C399.25,169.56,398.79,169.4,398.25,169.38z M417.98,165.34h2.85
	c0.85,0,1.48,0.2,1.89,0.61c0.4,0.41,0.61,1.01,0.61,1.82c0,0.81-0.2,1.42-0.61,1.82c-0.41,0.38-1.04,0.58-1.89,0.58h-2.66
	c-1.2,0-2.13,0.2-2.82,0.61c-0.68,0.43-1.15,0.95-1.41,1.57c-0.28,0.62-0.42,1.32-0.42,2.11c0,0.75,0.14,1.43,0.42,2.05
	c0.28,0.6,0.75,1.06,1.41,1.38c0.66,0.34,1.6,0.51,2.82,0.51h5.63c0.83,0,1.46,0.21,1.89,0.64c0.4,0.38,0.61,0.95,0.61,1.7
	c0,0.77-0.2,1.35-0.61,1.76c-0.41,0.41-1.04,0.61-1.89,0.61h-16.87v-4.7h2.5l-0.29-0.77c-0.32-0.87-0.48-2.03-0.48-3.46
	c0-1.26,0.16-2.41,0.48-3.46c0.36-1.09,0.9-2.02,1.6-2.78c0.77-0.83,1.72-1.46,2.85-1.89C414.81,165.58,416.27,165.34,417.98,165.34
	z M445.73,156.42c0.49,0,0.95,0.12,1.38,0.35c0.38,0.23,0.7,0.55,0.96,0.96c0.24,0.41,0.35,0.84,0.35,1.31
	c0,0.49-0.12,0.95-0.35,1.38c-0.21,0.38-0.53,0.7-0.96,0.96c-0.43,0.23-0.88,0.35-1.38,0.35c-0.47,0-0.92-0.12-1.34-0.35
	c-0.41-0.28-0.72-0.6-0.93-0.96c-0.23-0.43-0.35-0.89-0.35-1.38c0-0.45,0.12-0.89,0.35-1.31c0.21-0.41,0.52-0.73,0.93-0.96
	C444.81,156.53,445.26,156.42,445.73,156.42z M452.22,165.28c0.41-0.41,1.03-0.61,1.89-0.61c0.85,0,1.48,0.2,1.89,0.61
	c0.41,0.41,0.61,1.06,0.61,1.95v11.17h2.95v4.7h-1.22c-0.79,0-1.38-0.19-1.76-0.58c-0.09,1.22-0.33,2.3-0.74,3.26
	c-0.49,1.24-1.16,2.23-2.02,2.98c-0.83,0.7-1.81,1.24-2.94,1.6c-2.92,0.9-6.01,0.84-9.25-0.16c-1.09-0.34-2.05-0.89-2.88-1.63
	c-0.81-0.73-1.46-1.71-1.95-2.94c-0.47-1.22-0.7-2.71-0.7-4.48v-11.81c0-0.9,0.2-1.55,0.61-1.95c0.43-0.43,1.06-0.64,1.89-0.64
	c0.81,0,1.43,0.21,1.86,0.64c0.41,0.41,0.61,1.06,0.61,1.95v11.62c0,1.17,0.21,2.13,0.64,2.88c0.79,1.37,2.37,2.1,4.74,2.21
	c2.39,0.09,3.94-0.6,4.64-2.05c0.34-0.68,0.51-1.64,0.51-2.88v-13.89C451.58,166.36,451.8,165.71,452.22,165.28z M470.59,165.12
	c1.24,0,2.37,0.25,3.39,0.74c0.96,0.49,1.78,1.16,2.46,2.02c0.64,0.83,1.14,1.8,1.5,2.91c0.34,1.02,0.51,2.14,0.51,3.36
	c0,1.24-0.17,2.38-0.51,3.42c-0.11,0.3-0.21,0.58-0.32,0.83c-0.28,0.75-0.72,1.47-1.31,2.18c-0.64,0.79-1.42,1.41-2.34,1.86
	c-1,0.45-2.13,0.67-3.39,0.67h-12.32v-4.7h5.35c-0.17-0.34-0.3-0.67-0.38-0.99c-0.34-1.05-0.51-2.19-0.51-3.42s0.17-2.37,0.51-3.39
	c0.36-1.09,0.86-2.03,1.5-2.82c0.66-0.83,1.47-1.48,2.43-1.95C468.13,165.36,469.27,165.12,470.59,165.12z M470.59,169.38
	c-0.55,0.04-1.01,0.18-1.38,0.42c-1.39,0.87-1.94,2.42-1.66,4.64c0.19,1.62,0.75,2.79,1.66,3.52c0.41,0.34,0.86,0.51,1.38,0.51
	s0.97-0.14,1.38-0.42c1.17-0.83,1.75-2.22,1.73-4.16c-0.04-1.83-0.62-3.18-1.73-4.03C471.58,169.56,471.12,169.4,470.59,169.38z
	 M495.23,169.63h2.05c0.7,0,1.26,0.18,1.66,0.54c0.36,0.36,0.54,0.92,0.54,1.66c0,0.77-0.17,1.32-0.51,1.66
	c-0.3,0.3-0.86,0.47-1.7,0.51l-1.25,0.03c-0.96,0.02-1.66,0.12-2.11,0.29c-0.47,0.19-0.79,0.44-0.96,0.74
	c-0.17,0.3-0.26,0.63-0.26,0.99c0,0.43,0.16,0.85,0.48,1.28c0.34,0.43,0.82,0.77,1.44,1.02c0.62,0.28,1.4,0.42,2.34,0.42h0.42
	c0.7,0,1.26,0.15,1.66,0.45c0.41,0.32,0.61,0.87,0.61,1.66c0,0.73-0.19,1.28-0.58,1.66c-0.41,0.36-0.97,0.54-1.7,0.54h-7.01
	c-0.72,0-1.27-0.18-1.63-0.54c-0.34-0.34-0.51-0.9-0.51-1.66c0-0.28,0.06-0.53,0.19-0.77c0.11-0.28,0.3-0.49,0.58-0.64
	c0.3-0.17,0.64-0.26,1.02-0.26h0.86c-0.79-0.6-1.4-1.29-1.82-2.08c-0.43-0.79-0.64-1.57-0.64-2.34c0-0.7,0.16-1.35,0.48-1.95
	c0.3-0.62,0.74-1.17,1.31-1.66c0.53-0.45,1.24-0.82,2.11-1.12C493.21,169.78,494.19,169.63,495.23,169.63z M512.66,156
	c0.53,0.04,0.98,0.16,1.34,0.35c0.36,0.21,0.68,0.52,0.96,0.93c0.19,0.34,0.31,0.78,0.35,1.31c-0.04,0.55-0.16,1-0.35,1.34
	c-0.23,0.43-0.55,0.75-0.96,0.96c-0.34,0.19-0.79,0.31-1.34,0.35c-0.53-0.04-0.97-0.16-1.31-0.35c-0.38-0.23-0.69-0.55-0.93-0.96
	c-0.24-0.43-0.35-0.87-0.35-1.34c0-0.45,0.12-0.89,0.35-1.31c0.23-0.43,0.54-0.74,0.93-0.93C511.69,156.16,512.12,156.04,512.66,156
	z M511.02,165.28c0.41-0.41,1.04-0.61,1.89-0.61s1.48,0.2,1.89,0.61c0.41,0.41,0.61,1.06,0.61,1.95v11.17h2.94v4.7h-1.22
	c-0.79,0-1.38-0.19-1.76-0.58c-0.09,1.22-0.33,2.3-0.74,3.26l-0.06,0.1c-0.51,1.26-1.2,2.26-2.08,3.01
	c-1.68,1.47-4.15,2.25-7.39,2.34c-1.62,0.06-2.73-0.14-3.33-0.61c-0.34-0.26-0.58-0.58-0.7-0.96c-0.15-0.36-0.19-0.79-0.13-1.28
	c0.09-0.77,0.35-1.33,0.8-1.7c0.43-0.34,1.06-0.51,1.89-0.51h0.61c1.51,0,2.57-0.06,3.17-0.19c1.05-0.28,1.87-0.94,2.46-1.98
	c0.34-0.6,0.51-1.56,0.51-2.88v-13.89C510.39,166.36,510.6,165.71,511.02,165.28z M524.45,164.96h6.43c1.71,0,3.2,0.25,4.48,0.74
	c1.24,0.49,2.22,1.16,2.94,2.02c0.7,0.83,1.24,1.81,1.6,2.94c0.34,1.13,0.51,2.26,0.51,3.39l-0.03,6.34c0,0.92-0.25,1.6-0.74,2.05
	c-0.51,0.45-1.25,0.67-2.21,0.67h-20.39v-4.7h18.56v-4.58c0-0.73-0.13-1.38-0.38-1.95c-0.23-0.51-0.79-0.98-1.66-1.41
	c-0.68-0.34-1.64-0.51-2.88-0.51h-6.24c-0.87,0-1.53-0.21-1.95-0.64c-0.41-0.41-0.61-1.03-0.61-1.89c0-0.83,0.2-1.45,0.61-1.86
	C522.9,165.16,523.55,164.96,524.45,164.96z M530.34,186.47c0.53,0.04,0.98,0.16,1.34,0.35c0.36,0.21,0.68,0.52,0.96,0.93
	c0.19,0.34,0.31,0.78,0.35,1.31c-0.04,0.55-0.16,1-0.35,1.34c-0.23,0.43-0.55,0.75-0.96,0.96c-0.34,0.19-0.79,0.31-1.34,0.35
	c-0.53-0.04-0.97-0.16-1.31-0.35c-0.38-0.23-0.69-0.55-0.93-0.96c-0.24-0.43-0.35-0.87-0.35-1.34c0-0.45,0.12-0.89,0.35-1.31
	c0.23-0.43,0.54-0.74,0.93-0.93C529.36,186.63,529.8,186.51,530.34,186.47z"/>
</svg>
