<svg id="Layer_1" data-name="Layer 1" xmlns="http://www.w3.org/2000/svg" viewBox="0 0 465.91 66"><defs><style>.cls-1{fill:#fffbe6;}.cls-2{fill:#356859;}</style></defs><circle id="Ellipse_1" data-name="Ellipse 1" class="cls-1" cx="33" cy="33" r="33"/><path id="Path_1" data-name="Path 1" class="cls-2" d="M84.42,114.46H81.06V111a1.6,1.6,0,0,0-1.37-1.59,24.55,24.55,0,0,0-7.36.22A16.5,16.5,0,0,0,62,115.37a16.55,16.55,0,0,0-10.29-5.76,25,25,0,0,0-7.37-.22A1.61,1.61,0,0,0,43,111v3.48H39.65A1.61,1.61,0,0,0,38,116.07h0v30.36A1.61,1.61,0,0,0,40.18,148c.12,0,12.19-4.16,21.19-.06a1.62,1.62,0,0,0,1.33,0c9-4.09,21.07,0,21.19.06A1.63,1.63,0,0,0,86,147a1.6,1.6,0,0,0,.09-.53V116.07a1.62,1.62,0,0,0-1.62-1.61ZM41.26,144.27V117.68H43v21.45a1.6,1.6,0,0,0,1.62,1.61h.23c.09,0,7.08-1,12.2,2.53A39.18,39.18,0,0,0,41.26,144.27Zm19.16-2.46a17.39,17.39,0,0,0-8.67-4.05,26.11,26.11,0,0,0-4.49-.4l-1,0V112.46h0c3.1-.14,10.63.19,14.19,6.23Zm3.23-23.11c3.55-6,11.1-6.37,14.19-6.23v24.92a25.51,25.51,0,0,0-5.52.37,17.39,17.39,0,0,0-8.67,4.05ZM67,143.26c5.11-3.51,12.11-2.55,12.2-2.53A1.61,1.61,0,0,0,81,139.37a1.94,1.94,0,0,0,0-.24V117.68h1.75v26.59A39.18,39.18,0,0,0,67,143.26Z" transform="translate(-28.04 -95.21)"/><path id="Path_2" data-name="Path 2" class="cls-1" d="M144.54,116.75h5.78a7.11,7.11,0,0,1,5.2,2,6.77,6.77,0,0,1,2.06,5.09,6.69,6.69,0,0,1-2.06,5,7,7,0,0,1-5.06,2h-3.82V136a2.21,2.21,0,1,1-4.42,0h0V119a2,2,0,0,1,1.74-2.3A2.26,2.26,0,0,1,144.54,116.75Zm2.1,4.4v5.22h3.74a2.67,2.67,0,0,0,1.94-.69,2.77,2.77,0,0,0,0-3.84,3.46,3.46,0,0,0-2.32-.69Zm15.26-4.38h5a7.61,7.61,0,0,1,4.88,1.63,9.24,9.24,0,0,1,3,4,13.63,13.63,0,0,1,1,5.2,11.89,11.89,0,0,1-1.12,5.15,9.67,9.67,0,0,1-3.28,3.92,8.37,8.37,0,0,1-5,1.54h-5a2.89,2.89,0,0,1-1.84-.42,2.63,2.63,0,0,1-.48-1.9V119.25c0-1.65.92-2.48,2.75-2.48Zm1.68,4.43v12.59h2.72A4.31,4.31,0,0,0,170,132a7.22,7.22,0,0,0,1.33-4.35,8.08,8.08,0,0,0-1.23-4.51,3.81,3.81,0,0,0-3.38-1.89Zm15.94-4.43H187a2,2,0,0,1,2.24,1.66,2.1,2.1,0,0,1,0,.56,2,2,0,0,1-1.68,2.21,1.75,1.75,0,0,1-.56,0h-5.4v4.19h3.81a2,2,0,0,1,2.19,1.68,2.1,2.1,0,0,1,0,.56,1.94,1.94,0,0,1-1.64,2.18,1.69,1.69,0,0,1-.55,0h-3.81v6.38c0,1.35-.75,2-2.24,2s-2.22-.67-2.22-2V119.25c0-1.65.78-2.48,2.34-2.48Zm27.72,6.38a5.92,5.92,0,0,1,2.85.64,6.06,6.06,0,0,1,2.08,1.68,7.61,7.61,0,0,1,1.28,2.42,10.24,10.24,0,0,1,.4,2.86,9.76,9.76,0,0,1-.43,2.88,5.32,5.32,0,0,1-.26.66h2.29v3.92H214a1.74,1.74,0,0,1-2-1.48,2,2,0,0,1,0-.49,6.05,6.05,0,0,1-1.89,1.44,6.7,6.7,0,0,1-2.85.64H204a4.37,4.37,0,0,0-1.79.32,2.74,2.74,0,0,0-1.33,1.23,4.64,4.64,0,0,0-.51,2.37v.37a2.16,2.16,0,0,1-.51,1.6,2.51,2.51,0,0,1-3.09,0,2.16,2.16,0,0,1-.51-1.6v-.53a10.41,10.41,0,0,1,.59-3.71,5.72,5.72,0,0,1,1.6-2.45,7.47,7.47,0,0,1,3-1.52c-.21-.55-.33-.86-.34-.93a9.44,9.44,0,0,1-.43-2.88,8.76,8.76,0,0,1,.43-2.83,6.93,6.93,0,0,1,1.25-2.37,5.71,5.71,0,0,1,2-1.63A6.4,6.4,0,0,1,207.24,123.15Zm1.17,4a1.79,1.79,0,0,0-1.17-.4,2,2,0,0,0-1.15.32,1.88,1.88,0,0,0-.8.85,4.13,4.13,0,0,0-.48,1.17,5.93,5.93,0,0,0-.16,1.39,6.51,6.51,0,0,0,.16,1.39,7.11,7.11,0,0,0,.48,1.41,2.56,2.56,0,0,0,.8,1,1.73,1.73,0,0,0,1.15.43,2,2,0,0,0,1.17-.35,2.5,2.5,0,0,0,.8-.91,4.5,4.5,0,0,0,.48-1.23,8,8,0,0,0,.13-1.38,8.43,8.43,0,0,0-.13-1.42,5.29,5.29,0,0,0-.48-1.33,3.05,3.05,0,0,0-.8-1ZM224.17,123a1.94,1.94,0,0,1,1.47.51,2.17,2.17,0,0,1,.48,1.49v10.72a2.65,2.65,0,0,1-.56,1.84,2.19,2.19,0,0,1-1.71.61h-9.46v-3.92h7.81V125a1.77,1.77,0,0,1,1.48-2,2,2,0,0,1,.49,0Zm-5.89,17.89a2.75,2.75,0,0,1,1.12.3,2.56,2.56,0,0,1,.8.77,2.76,2.76,0,0,1,.29,1.09,2.59,2.59,0,0,1-.29,1.12,1.93,1.93,0,0,1-.8.8,2.59,2.59,0,0,1-1.12.29,2.5,2.5,0,0,1-1.1-.29,2.27,2.27,0,0,1-.77-.8,2.31,2.31,0,0,1-.29-1.12,2.2,2.2,0,0,1,.29-1.09,1.79,1.79,0,0,1,.77-.77A2.66,2.66,0,0,1,218.28,140.93Zm5.84,0a2.75,2.75,0,0,1,1.12.3,2.56,2.56,0,0,1,.8.77,2.25,2.25,0,0,1,0,2.21,2.19,2.19,0,0,1-.8.8,2.75,2.75,0,0,1-1.12.3,2.62,2.62,0,0,1-1.1-.3,2.11,2.11,0,0,1-.77-.8,2.31,2.31,0,0,1-.29-1.12,2.2,2.2,0,0,1,.29-1.09,1.79,1.79,0,0,1,.77-.77A2.66,2.66,0,0,1,224.12,140.93Zm9.61-17.84h.16a10.33,10.33,0,0,1,3.73.62,5.92,5.92,0,0,1,2.45,1.68,6.79,6.79,0,0,1,1.36,2.45,9.36,9.36,0,0,1,.4,2.83v3.62h2.24v3.92h-1a1.75,1.75,0,0,1-1.66-.85l-.24.29a2.55,2.55,0,0,1-1.84.56h-8.9a2.09,2.09,0,0,1-1.5-.48,1.91,1.91,0,0,1-.5-1.46,1.75,1.75,0,0,1,1.5-2,2.09,2.09,0,0,1,.5,0h7.41v-3.81a4,4,0,0,0-.35-1.63,2.73,2.73,0,0,0-1.38-1.17,5.5,5.5,0,0,0-2.4-.43,1.88,1.88,0,0,1-2.14-2.1,2.1,2.1,0,0,1,.54-1.55,2.16,2.16,0,0,1,1.6-.51Zm16.46-7.57a2.9,2.9,0,0,1,1.12.29,2.48,2.48,0,0,1,.8.78,2.43,2.43,0,0,1,.29,1.09,2.59,2.59,0,0,1-.29,1.12,1.93,1.93,0,0,1-.8.8,2.59,2.59,0,0,1-1.12.29,2.76,2.76,0,0,1-1.09-.29,2.21,2.21,0,0,1-1.07-1.92,2.2,2.2,0,0,1,.29-1.09,1.83,1.83,0,0,1,.78-.78,2.76,2.76,0,0,1,1.09-.29Zm5.84,0a2.9,2.9,0,0,1,1.12.29,2.48,2.48,0,0,1,.8.78,2.43,2.43,0,0,1,.29,1.09,2.59,2.59,0,0,1-.29,1.12,1.72,1.72,0,0,1-.8.8,2.59,2.59,0,0,1-1.12.29,2.76,2.76,0,0,1-1.09-.29,2.21,2.21,0,0,1-1.07-1.92,2.2,2.2,0,0,1,.29-1.09,1.83,1.83,0,0,1,.78-.78,2.76,2.76,0,0,1,1.1-.29Zm-3.49,7.71h4.16a2.11,2.11,0,0,1,1.54.48,2.06,2.06,0,0,1,.51,1.54v9h2.43l0,3.92h-1a1.79,1.79,0,0,1-1.57-.66,1.44,1.44,0,0,1-1.34.66H243v-3.92h3.7a9.53,9.53,0,0,1-.8-4.18,8.29,8.29,0,0,1,1-3.9A5.72,5.72,0,0,1,249.2,124,7,7,0,0,1,252.54,123.23Zm2.32,3.89h-2a3,3,0,0,0-2.06.61c-.89.78-1.16,2-.82,3.81s1.17,2.75,2.5,2.75h2.38ZM264,115.33a2.9,2.9,0,0,1,1.12.29,2.59,2.59,0,0,1,.8.78,2.76,2.76,0,0,1,.29,1.09,2.59,2.59,0,0,1-.29,1.12,1.93,1.93,0,0,1-.8.8,2.59,2.59,0,0,1-1.12.29,2.43,2.43,0,0,1-1.09-.29,2.21,2.21,0,0,1-.78-.8,2.31,2.31,0,0,1-.29-1.12,2.2,2.2,0,0,1,.29-1.09,1.83,1.83,0,0,1,.78-.78,2.76,2.76,0,0,1,1.09-.29Zm5.84,0a2.9,2.9,0,0,1,1.12.29,2.59,2.59,0,0,1,.8.78,2.76,2.76,0,0,1,.29,1.09,2.59,2.59,0,0,1-.29,1.12,2.19,2.19,0,0,1-.8.8,2.59,2.59,0,0,1-1.12.29,2.43,2.43,0,0,1-1.09-.29,2.21,2.21,0,0,1-.78-.8,2.31,2.31,0,0,1-.29-1.12,2.2,2.2,0,0,1,.29-1.09,1.83,1.83,0,0,1,.78-.78,2.76,2.76,0,0,1,1.09-.29Zm.05,7.71a1.94,1.94,0,0,1,1.47.51,2.17,2.17,0,0,1,.48,1.49v10.72a2.65,2.65,0,0,1-.56,1.84,2.22,2.22,0,0,1-1.71.61h-9.46v-3.92h7.81V125a1.75,1.75,0,0,1,1.47-2,2.09,2.09,0,0,1,.5,0Zm16.9,0a6.39,6.39,0,0,1,2.85.64,6,6,0,0,1,2.06,1.71,10.12,10.12,0,0,1,1.92,5.44c.12,1.45.19,2.61.21,3.46h2.51v3.92h-1a1.88,1.88,0,0,1-1.63-.64,11.81,11.81,0,0,1-.69,3,6.51,6.51,0,0,1-1.73,2.51,9.5,9.5,0,0,1-6.16,1.94,4.47,4.47,0,0,1-2.78-.5,1.67,1.67,0,0,1-.58-.8,2.05,2.05,0,0,1-.11-1.07,2,2,0,0,1,.67-1.41,2.43,2.43,0,0,1,1.57-.43h.51a14.63,14.63,0,0,0,2.64-.16A2.83,2.83,0,0,0,289,139a4,4,0,0,0,.37-1.28,6.26,6.26,0,0,1-2.53.48,6,6,0,0,1-2.88-.64,6.22,6.22,0,0,1-2.05-1.73,7.32,7.32,0,0,1-1.26-2.45,9.91,9.91,0,0,1,0-5.71,6.61,6.61,0,0,1,1.26-2.37,5.55,5.55,0,0,1,2.06-1.66,6.49,6.49,0,0,1,2.88-.61Zm0,3.6a2.36,2.36,0,0,0-2,1.17,4.43,4.43,0,0,0-.48,1.2,5.68,5.68,0,0,0-.16,1.36,6.79,6.79,0,0,0,.16,1.42,5.65,5.65,0,0,0,.48,1.38,3,3,0,0,0,.8,1.07,1.68,1.68,0,0,0,1.17.43,1.88,1.88,0,0,0,1.15-.35,2.42,2.42,0,0,0,.8-.91,4.62,4.62,0,0,0,.48-1.25,7.74,7.74,0,0,0,.13-1.36,8.31,8.31,0,0,0-.13-1.41,6.29,6.29,0,0,0-.48-1.34,2.81,2.81,0,0,0-.8-1,2,2,0,0,0-1.14-.4Zm14.2-3.39h9.39a10.21,10.21,0,0,1,3.71.61,6,6,0,0,1,2.42,1.68,6.35,6.35,0,0,1,1.36,2.43,10.57,10.57,0,0,1,.4,3,8.68,8.68,0,0,1-.4,2.91l-.16.45a7.8,7.8,0,0,1-1.09,1.79l-.1.13a5.6,5.6,0,0,1-2.43,1.6,14.91,14.91,0,0,1-3.71.4H295.28v-3.92h4.59a5.44,5.44,0,0,1-.45-1.09,8,8,0,0,1-.35-2.43,7.84,7.84,0,0,1,.35-2.4,7.48,7.48,0,0,1,.5-1.17,1.33,1.33,0,0,1-.53-.35,2.11,2.11,0,0,1-.51-1.54,2.13,2.13,0,0,1,.51-1.55,2.24,2.24,0,0,1,1.63-.51Zm9.23,4.13h-.88a12.17,12.17,0,0,1,.48,1.12,8.4,8.4,0,0,1,0,4.8,8.53,8.53,0,0,1-.4,1h.8a4.54,4.54,0,0,0,2.37-.51,3,3,0,0,0,1.2-1.3,4.43,4.43,0,0,0,.35-1.79,4,4,0,0,0-.35-1.71,2.48,2.48,0,0,0-1.2-1.17,5.18,5.18,0,0,0-2.37-.42Zm-5.63.14a1.64,1.64,0,0,0-1,.26,2.16,2.16,0,0,0-.69.72,2.72,2.72,0,0,0-.4,1,5.51,5.51,0,0,0-.11,1.14,5.82,5.82,0,0,0,.11,1.18A4.38,4.38,0,0,0,303,133a2.68,2.68,0,0,0,.69.91,1.35,1.35,0,0,0,1,.34,1.67,1.67,0,0,0,1-.29,1.8,1.8,0,0,0,.67-.75,3.23,3.23,0,0,0,.4-1.06,6.33,6.33,0,0,0,.13-1.15,6.55,6.55,0,0,0-.13-1.17,3.93,3.93,0,0,0-.4-1.15,2.23,2.23,0,0,0-.67-.85,1.66,1.66,0,0,0-1-.32Zm33.81-4a2.9,2.9,0,0,1,.51,0,1.64,1.64,0,0,1,1.59,1.67,1.23,1.23,0,0,1,0,.2v8.88h2.19v3.92h-4.08a2,2,0,0,1-1.41-.42l-.16-.22c-2.87.5-5.05.47-6.56-.08a6,6,0,0,1-2.35-1.54,5.89,5.89,0,0,1-1.28-2.27,10.17,10.17,0,0,1,0-5.63,5.94,5.94,0,0,1,1.28-2.35,6.68,6.68,0,0,1,2.35-1.6q1.44-.59,7.95-.58Zm-1.7,10.24v-6.35a11.28,11.28,0,0,0-4.83.48,2.28,2.28,0,0,0-1.15,1.12,4,4,0,0,0-.32,1.63,4.37,4.37,0,0,0,.32,1.71,2.76,2.76,0,0,0,1.18,1.28q1.47.85,4.8.13Zm11-10.67h5.36a10.29,10.29,0,0,1,3.73.62,6,6,0,0,1,2.46,1.68,7.13,7.13,0,0,1,1.33,2.45,9.71,9.71,0,0,1,.43,2.83l0,5.28a2.18,2.18,0,0,1-.61,1.7,2.67,2.67,0,0,1-1.84.56h-17v-3.92h15.47v-3.81a4,4,0,0,0-.32-1.63,2.8,2.8,0,0,0-1.39-1.17,5.5,5.5,0,0,0-2.4-.43h-5.2a2.21,2.21,0,0,1-1.63-.53,2.68,2.68,0,0,1,0-3.12A2.25,2.25,0,0,1,347.77,123.09ZM352.68,141a2.75,2.75,0,0,1,1.12.3,2.56,2.56,0,0,1,.8.77,2.76,2.76,0,0,1,.29,1.09,2.59,2.59,0,0,1-.29,1.12,1.93,1.93,0,0,1-.8.8,2.59,2.59,0,0,1-1.12.29,2.5,2.5,0,0,1-1.1-.29,2.27,2.27,0,0,1-.77-.8,2.31,2.31,0,0,1-.29-1.12,2.2,2.2,0,0,1,.29-1.09,1.79,1.79,0,0,1,.77-.77A2.66,2.66,0,0,1,352.68,141Zm12.46-24.64a1.75,1.75,0,0,1,2,1.48,2.09,2.09,0,0,1,0,.5v15.94h2.51v3.92h-4.16a2.13,2.13,0,0,1-1.68-.61,2.58,2.58,0,0,1-.56-1.81V118.35a2.06,2.06,0,0,1,.48-1.47A1.9,1.9,0,0,1,365.14,116.37Zm9.63-1a2.75,2.75,0,0,1,1.12.3,2.56,2.56,0,0,1,.8.77,2.76,2.76,0,0,1,.29,1.09,2.59,2.59,0,0,1-.29,1.12,1.93,1.93,0,0,1-.8.8,2.59,2.59,0,0,1-1.12.29,2.46,2.46,0,0,1-1.09-.29,2.21,2.21,0,0,1-1.07-1.92,2.2,2.2,0,0,1,.29-1.09,1.76,1.76,0,0,1,.78-.77,2.57,2.57,0,0,1,1.09-.3Zm5.84,0a2.75,2.75,0,0,1,1.12.3,2.56,2.56,0,0,1,.8.77,2.76,2.76,0,0,1,.29,1.09,2.59,2.59,0,0,1-.29,1.12,2.19,2.19,0,0,1-.8.8,2.59,2.59,0,0,1-1.12.29,2.46,2.46,0,0,1-1.09-.29,2.21,2.21,0,0,1-1.07-1.92,2.2,2.2,0,0,1,.29-1.09,1.76,1.76,0,0,1,.78-.77,2.57,2.57,0,0,1,1.09-.3Zm-2.77,7.6a1.71,1.71,0,0,1,1.94,2v9.38h3.92v3.92h-2.45a1.74,1.74,0,0,1-1.79-1,1.27,1.27,0,0,1-.27.34,2.12,2.12,0,0,1-1.7.64h-9v-3.92h7.31v-9.38a1.75,1.75,0,0,1,1.5-2,2.09,2.09,0,0,1,.5,0Zm11,.16h5.36a10.29,10.29,0,0,1,3.73.62,6,6,0,0,1,2.46,1.68,7.13,7.13,0,0,1,1.33,2.45,9.71,9.71,0,0,1,.43,2.83v3.62h2.4v3.92h-1a1.69,1.69,0,0,1-1.73-1,2.55,2.55,0,0,1-.32.4,2.67,2.67,0,0,1-1.84.56h-17v-3.92h15.46v-3.81a4,4,0,0,0-.32-1.63,2.73,2.73,0,0,0-1.38-1.17,5.5,5.5,0,0,0-2.4-.43h-5.2a1.85,1.85,0,0,1-2.14-2.1,2.13,2.13,0,0,1,.51-1.55,2.24,2.24,0,0,1,1.63-.51Zm18.52-7.76a2.79,2.79,0,0,1,1.12.3,2.56,2.56,0,0,1,.8.77,2.76,2.76,0,0,1,.29,1.09,2.9,2.9,0,0,1-.29,1.12,2,2,0,0,1-.8.8,2.59,2.59,0,0,1-1.12.29,2.47,2.47,0,0,1-1.1-.29,2.27,2.27,0,0,1-.77-.8,2.31,2.31,0,0,1-.29-1.12,2.2,2.2,0,0,1,.29-1.09,1.79,1.79,0,0,1,.77-.77,2.61,2.61,0,0,1,1.09-.3Zm5.84,0a2.79,2.79,0,0,1,1.12.3,2.56,2.56,0,0,1,.8.77,2.76,2.76,0,0,1,.29,1.09,2.9,2.9,0,0,1-.29,1.12,2.27,2.27,0,0,1-.8.8,2.59,2.59,0,0,1-1.12.29,2.47,2.47,0,0,1-1.1-.29,2.27,2.27,0,0,1-.77-.8,2.31,2.31,0,0,1-.29-1.12,2.2,2.2,0,0,1,.29-1.09,1.79,1.79,0,0,1,.77-.77,2.61,2.61,0,0,1,1.09-.3Zm.05,7.71a1.94,1.94,0,0,1,1.47.51,2.17,2.17,0,0,1,.48,1.49v10.72a2.65,2.65,0,0,1-.56,1.84,2.22,2.22,0,0,1-1.71.61h-9.47v-3.92h7.81V125a1.77,1.77,0,0,1,1.48-2,2.09,2.09,0,0,1,.5,0Zm12.21-6.67a1.75,1.75,0,0,1,2,1.48,1.4,1.4,0,0,1,0,.5v15.94h2.51v3.92h-4.16a2.14,2.14,0,0,1-1.68-.61,2.58,2.58,0,0,1-.56-1.81V118.35a2.11,2.11,0,0,1,.48-1.47,1.91,1.91,0,0,1,1.43-.51Zm13.66,6.86a6.3,6.3,0,0,1,2.83.61,6.4,6.4,0,0,1,2.05,1.68A7.9,7.9,0,0,1,445.2,128a8.58,8.58,0,0,1,.43,2.8,8.92,8.92,0,0,1-.43,2.85c-.09.25-.17.48-.26.69a6,6,0,0,1-1.1,1.81,5.51,5.51,0,0,1-1.94,1.55,6.75,6.75,0,0,1-2.83.56H428.8v-3.92h4.45a4.81,4.81,0,0,1-.32-.82,9.26,9.26,0,0,1-.42-2.86,8.69,8.69,0,0,1,.42-2.82,7.41,7.41,0,0,1,1.26-2.35,5.71,5.71,0,0,1,2-1.63,6.4,6.4,0,0,1,2.86-.58Zm0,3.54a2.45,2.45,0,0,0-1.15.35q-1.74,1.09-1.38,3.87a4.13,4.13,0,0,0,1.38,2.93,1.75,1.75,0,0,0,1.15.43,2,2,0,0,0,1.15-.35,3.91,3.91,0,0,0,1.44-3.47,4.11,4.11,0,0,0-1.44-3.36,2,2,0,0,0-1.15-.4Zm27.81-10.45a2.09,2.09,0,0,1,1.55.51,2.22,2.22,0,0,1,.51,1.62v15.84h2.56l0,3.92h-1a1.89,1.89,0,0,1-1.6-.61,9.72,9.72,0,0,1-.59,2.77,6.15,6.15,0,0,1-1.68,2.46,6.44,6.44,0,0,1-2.45,1.33,10.06,10.06,0,0,1-2.94.43,9.72,9.72,0,0,1-2.93-.43,6.32,6.32,0,0,1-2.37-1.33,5.75,5.75,0,0,1-1.6-2.46,9.94,9.94,0,0,1-.59-3.7v-4.22a2.21,2.21,0,0,1,.51-1.62,2.6,2.6,0,0,1,3.09,0,2.21,2.21,0,0,1,.51,1.62v4.06a4.66,4.66,0,0,0,.5,2.4,3.06,3.06,0,0,0,1.34,1.2,4.18,4.18,0,0,0,1.78.34,3.88,3.88,0,0,0,1.71-.34,2.71,2.71,0,0,0,1.17-1.2,5.5,5.5,0,0,0,.43-2.4V118.45a2.21,2.21,0,0,1,.51-1.62,2.09,2.09,0,0,1,1.57-.51Zm20.82,0a2.29,2.29,0,0,1,1,.5,2,2,0,0,1,.62.86,1.61,1.61,0,0,1,0,1.2,2.33,2.33,0,0,1-.77,1l-3,2.29-3.07,2.32c-.23.18-.73.52-1.49,1-.53.36-1,.69-1.44,1h6.53a3,3,0,0,1,.43,0,11.62,11.62,0,0,1,3.2.61,6.12,6.12,0,0,1,2.45,1.68,7.15,7.15,0,0,1,1.34,2.43,10.77,10.77,0,0,1,.4,3.15l0,1.52a2.22,2.22,0,0,1-.61,1.68,2.65,2.65,0,0,1-1.82.58h-21v-3.92H490v0a4.81,4.81,0,0,0-.34-2,2.64,2.64,0,0,0-1.36-1.17,5.4,5.4,0,0,0-2.4-.48h-9.94a3.57,3.57,0,0,1-1.69-.43,2.08,2.08,0,0,1-.9-1.06,2,2,0,0,1,0-1.52,4.49,4.49,0,0,1,1.2-1.47L486,116.69l.29-.24.35-.16a1.91,1.91,0,0,1,1.06,0Z" transform="translate(-28.04 -95.21)"/></svg>